<svg width="123" height="431" viewBox="0 0 123 431" fill="none" xmlns="http://www.w3.org/2000/svg">
<path opacity="0.2" fill-rule="evenodd" clip-rule="evenodd" d="M89.7855 53.7533C72.4854 18.5657 43.1573 -0.729288 15.2513 0.0210948C-10.8337 0.72347 -30.3962 34.4521 -52.1443 57.572C-71.0306 77.6508 -90.4396 95.5462 -103.037 125.773C-116.952 159.16 -128.197 196.807 -126.898 236.94C-125.515 279.639 -112.759 318.772 -95.7246 351.649C-77.339 387.135 -55.6019 424.481 -27.0439 429.67C1.17995 434.799 24.3364 398.899 49.5909 378.054C74.7231 357.31 108.803 350.008 119.971 308.323C131.116 266.726 108.31 223.071 103.034 178.573C97.994 136.071 106.484 87.7178 89.7855 53.7533Z" fill="#9BCFB9"/>
</svg>
