<svg width="84" height="86" viewBox="0 0 84 86" fill="none" xmlns="http://www.w3.org/2000/svg">
<path opacity="0.2" fill-rule="evenodd" clip-rule="evenodd" d="M81.9121 -34.7316C75.7646 -51.0051 60.609 -63.6662 43.9466 -68.6454C28.3714 -73.2993 12.796 -64.5093 -2.83311 -60.0547C-16.4057 -56.186 -30.0326 -53.2232 -41.0606 -44.4163C-53.2414 -34.6887 -64.3365 -22.8828 -68.2726 -7.79429C-72.4604 8.25897 -69.4742 25.1358 -63.2137 40.5046C-56.4566 57.0929 -47.927 75.0005 -31.5742 82.2992C-15.4126 89.5126 2.55207 80.5968 19.9968 77.6442C37.3572 74.7057 58.4551 78.425 69.9778 65.1107C81.4766 51.8249 73.0526 31.3825 75.1389 13.9302C77.1311 -2.73921 87.8456 -19.0239 81.9121 -34.7316Z" fill="#9BCFB9"/>
</svg>
