<svg width="236" height="110" viewBox="0 0 236 110" fill="none" xmlns="http://www.w3.org/2000/svg">
<g clip-path="url(#clip0_1493_6261)">
<g clip-path="url(#clip1_1493_6261)">
<path opacity="0.2" fill-rule="evenodd" clip-rule="evenodd" d="M146.236 19.6082C121.787 24.0919 94.7522 20.3379 75.3131 35.7661C56.21 50.9277 55.9357 78.4913 44.7811 100.13C30.5323 127.772 -3.32402 149.159 0.999526 179.928C5.30464 210.566 39.7348 226.251 65.0282 244.223C90.0926 262.032 115.446 282.675 146.236 283.122C177.223 283.573 204.732 265.561 229.184 246.607C252.925 228.204 273.963 205.759 282.931 177.165C291.835 148.776 285.594 119.074 278.221 90.2543C270.338 59.4358 267.212 20.7943 239.075 5.73449C210.822 -9.38838 177.783 13.823 146.236 19.6082Z" fill="#9BCFB9"/>
</g>
</g>
<defs>
<clipPath id="clip0_1493_6261">
<rect width="265.379" height="208.893" fill="white" transform="translate(0.621094 0.660156)"/>
</clipPath>
<clipPath id="clip1_1493_6261">
<rect width="265.379" height="208.893" fill="white" transform="translate(0.621094 0.660156)"/>
</clipPath>
</defs>
</svg>
