<svg width="135" height="91" viewBox="0 0 135 91" fill="none" xmlns="http://www.w3.org/2000/svg">
<g clip-path="url(#clip0_1584_3526)">
<g clip-path="url(#clip1_1584_3526)">
<path opacity="0.2" fill-rule="evenodd" clip-rule="evenodd" d="M88.0975 40.7049C75.1807 49.2548 58.7667 53.7158 51.3984 67.3135C44.1574 80.6763 50.7421 96.5421 49.6414 111.673C48.2353 131.002 34.0609 151.541 44.065 168.12C54.0265 184.628 77.5974 185.197 96.4908 189.311C115.213 193.388 134.794 199.019 152.552 191.744C170.422 184.423 181.784 167.371 191.163 150.526C200.27 134.171 206.839 116.16 204.985 97.5776C203.145 79.1277 192.303 63.6298 181.027 48.9145C168.971 33.1785 157.728 11.7948 137.917 10.0449C118.024 8.28736 104.764 29.6727 88.0975 40.7049Z" fill="#9BCFB9"/>
</g>
</g>
<defs>
<clipPath id="clip0_1584_3526">
<rect width="165.379" height="130.178" fill="white" transform="translate(0 65.4609) rotate(-23.1098)"/>
</clipPath>
<clipPath id="clip1_1584_3526">
<rect width="165.379" height="130.178" fill="white" transform="translate(0 65.4609) rotate(-23.1098)"/>
</clipPath>
</defs>
</svg>
