<svg width="168" height="153" viewBox="0 0 168 153" fill="none" xmlns="http://www.w3.org/2000/svg">
<g clip-path="url(#clip0_1493_6258)">
<g clip-path="url(#clip1_1493_6258)">
<path opacity="0.2" fill-rule="evenodd" clip-rule="evenodd" d="M112.515 -232.215C84.1452 -268.149 36.0509 -287.853 -9.71147 -287.087C-52.4876 -286.37 -84.5675 -251.926 -120.232 -228.316C-151.203 -207.811 -183.031 -189.536 -203.689 -158.668C-226.507 -124.573 -244.948 -86.1281 -242.818 -45.1441C-240.551 -1.53955 -219.631 38.4232 -191.698 71.9973C-161.548 108.236 -125.902 146.374 -79.0702 151.673C-32.7867 156.91 5.18703 120.249 46.601 98.9626C87.8147 77.7782 143.702 70.322 162.015 27.7527C180.291 -14.726 142.893 -59.3069 134.241 -104.749C125.976 -148.153 139.898 -197.531 112.515 -232.215Z" fill="#9BCFB9"/>
</g>
</g>
<defs>
<clipPath id="clip0_1493_6258">
<rect width="410.325" height="232.34" fill="white" transform="translate(-243.009 -80)"/>
</clipPath>
<clipPath id="clip1_1493_6258">
<rect width="410.325" height="232.34" fill="white" transform="translate(-243.009 -80)"/>
</clipPath>
</defs>
</svg>
