<svg width="779" height="270" viewBox="0 0 779 270" fill="none" xmlns="http://www.w3.org/2000/svg">
<g opacity="0.05">
<path d="M258.219 202.115V156.134H232.955V127.246H217.239V108.805H232.955V84.877H218.777V66.4363H232.955V52.2844H179.467V48.9914H232.955V45.3692H177.712V67.3215H176.385V75.654H164.988V67.3215H151.369V57.2239H147.427V38.7832H151.366V26.4886H177.71V38.7832H232.953V9.47314H143.089L119.074 43.7227H144.725V47.0157H116.766L114.226 50.6379H139.458V57.2239H109.608L84.4421 93.1173H131.392V107.936H74.0521L36.6387 161.292V181.877H129.79V186.83H36.6387V198.822H202.71V202.115H36.6387V213.311H64.8713V224.507H36.6387V231.404H146.458V240.972H208.445V260.071H146.458V270H232.955V231.406H258.219V214.955H240.195V202.117H258.219V202.115ZM62.0077 173.566H50.6114V162.17H62.0077V173.566ZM89.8979 165.355H71.4573V146.914H89.8979V165.355ZM181.443 160.953H149.501V156.134H126.142L149.501 120.446V106.95H181.443V160.953ZM208.411 107.048H197.014V95.6516H208.411V107.048Z" fill="#4FB27F"/>
<path d="M493.555 162.006C494.538 153.21 495.06 143.929 495.06 134.124C495.06 107.899 491.472 85.2722 484.538 66.4364H403.389V53.5991H479.032C461.471 18.5803 429.832 0 385.849 0C359.95 0 338.348 6.46477 321.362 18.9122H426.221V25.4982H313.411C308.577 30.0003 304.223 35.111 300.313 40.7591H326.992V57.224H290.964C281.53 77.7168 276.641 103.468 276.641 134.124C276.641 139.693 276.838 145.062 277.157 150.307H305.919V188.946H283.103C284.315 193.514 285.666 197.924 287.21 202.117H362.864V214.955H292.721C294.515 218.532 296.459 221.936 298.543 225.168H413.929V231.754H303.211C321.72 255.893 349.576 268.596 385.851 268.596C446.803 268.596 484.03 232.8 492.95 166.962H437.182V162.009H493.555V162.006ZM432.583 30.7669H443.892V42.0763H432.583V30.7669ZM429.074 171.819V198.163H387.582V186.912C387.005 186.943 386.457 187.009 385.849 187.009C364.985 187.009 361.028 168.421 361.028 134.122C361.028 102.901 364.389 84.8323 380.996 82.0188V72.3717H431.049V107.277H408.842C409.756 113.452 410.154 120.747 410.267 129.011H440.272V138.89H410.283C410.111 152.789 409.124 163.827 406.365 171.819H429.074Z" fill="#4FB27F"/>
<path d="M712.252 25.498H674.73V29.1203H712.252V25.498Z" fill="#4FB27F"/>
<path d="M712.257 156.134V107.372H702.383V88.9312H712.257V65.0032H703.922V46.5625H712.257V32.4107H674.735V82.2478H641.147V53.9283H639.83V37.3501H632.572V18.9095H639.83V9.47046H622.395L612.314 23.8489H629.872V27.1419H610.003L607.464 30.7642H624.603V37.3501H602.846L589.834 55.904H635.878V73.6861H577.366L560.74 97.3955H600.314V157.328H518.717L515.938 161.29V162.004H614.932V166.956H515.938V178.948H687.854V182.241H515.938V196.185H583.847V220.553H515.938V231.401H625.76V248.872H664.856V256.117H625.76V269.997H712.257V231.404H737.52V156.134H712.257ZM664.195 165.233H624.679V156.134H605.441L624.679 126.742V108.594H664.195V165.233ZM693.553 87.1767H682.156V75.7804H693.553V87.1767Z" fill="#4FB27F"/>
<path d="M712.252 9.47314H674.73V18.9121H712.252V9.47314Z" fill="#4FB27F"/>
<path d="M24.9634 146.914H0V165.355H24.9634V146.914Z" fill="#4FB27F"/>
<path d="M256.425 57.2161H237.984V75.6567H256.425V57.2161Z" fill="#4FB27F"/>
<path d="M272.73 67.7722H261.334V79.1686H272.73V67.7722Z" fill="#4FB27F"/>
<path d="M517.325 102.017H510.102V120.457H517.325V102.017Z" fill="#4FB27F"/>
<path d="M741.568 37.3425H723.127V55.7832H741.568V37.3425Z" fill="#4FB27F"/>
<path d="M757.873 47.8987H746.477V59.295H757.873V47.8987Z" fill="#4FB27F"/>
<path d="M544.322 84.877H532.926V96.2732H544.322V84.877Z" fill="#4FB27F"/>
<path d="M489.995 30.7668H478.686V42.0762H489.995V30.7668Z" fill="#4FB27F"/>
</g>
<g opacity="0.1556">
<path d="M258.801 202.115V156.134H233.537V127.246H217.823V108.805H233.537V84.877H219.359V66.4363H233.537V52.2844H180.049V48.9914H233.537V45.3692H177.707V67.3215H176.967V75.654H165.57V67.3215H151.366V57.2239H148.012V38.7832H151.366V26.4886H177.71V38.7832H233.54V9.47314H143.676L119.661 43.7227H145.312V47.0157H117.353L114.814 50.6379H140.043V57.2239H110.193L85.0268 93.1173H131.389V107.936H74.6342L37.2207 161.292V181.877H130.372V186.83H37.2207V198.822H203.292V202.115H37.2207V213.311H64.8685V224.507H37.2207V231.404H147.04V240.972H208.442V260.071H147.04V270H233.537V231.406H258.801V214.955H240.777V202.117H258.801V202.115ZM62.5924 173.566H51.1961V162.17H62.5924V173.566ZM90.4826 165.355H72.0419V146.914H90.4826V165.355ZM181.44 160.953H149.498V156.134H126.724L149.498 121.339V106.948H181.44V160.953ZM208.993 107.048H197.596V95.6516H208.993V107.048Z" fill="#4FB27F"/>
<path d="M494.144 162.006C495.127 153.21 495.648 143.929 495.648 134.124C495.648 107.899 492.06 85.2722 485.129 66.4364H403.98V53.5991H479.623C462.062 18.5803 430.424 0 386.44 0C360.541 0 338.937 6.46477 321.953 18.9122H426.812V25.4982H314C309.166 30.0003 304.811 35.111 300.902 40.7591H326.993V57.224H291.55C282.116 77.7168 277.227 103.468 277.227 134.124C277.227 139.693 277.424 145.062 277.743 150.307H305.92V188.946H283.689C284.901 193.514 286.249 197.924 287.796 202.117H363.447V214.955H293.307C295.101 218.532 297.045 221.936 299.129 225.168H414.515V231.754H303.797C322.306 255.893 350.162 268.596 386.437 268.596C447.386 268.596 484.615 232.8 493.535 166.962H437.768V162.009H494.144V162.006ZM433.169 30.7669H444.478V42.0763H433.169V30.7669ZM429.075 171.819V198.163H387.583V186.946C387.193 186.959 386.838 187.012 386.437 187.012C365.573 187.012 361.616 168.424 361.616 134.124C361.616 103.278 364.904 85.2775 380.997 82.132V72.3717H431.051V107.277H409.428C410.344 113.452 410.74 120.747 410.853 129.011H440.271V138.89H410.866C410.695 152.789 409.707 163.827 406.949 171.819H429.075Z" fill="#4FB27F"/>
<path d="M712.837 9.47314H674.73V18.9121H712.837V9.47314Z" fill="#4FB27F"/>
<path d="M712.837 25.498H674.73V29.1203H712.837V25.498Z" fill="#4FB27F"/>
<path d="M712.839 156.134V107.372H702.966V88.9312H712.839V65.0032H704.504V46.5625H712.839V32.4107H674.733V82.2478H641.145V53.9283H639.828V37.3501H633.157V18.9095H639.828V9.47046H622.978L612.896 23.8489H630.454V27.1419H610.586L608.046 30.7642H625.186V37.3501H603.428L590.417 55.904H635.876V73.6861H577.949L561.323 97.3955H600.309V157.328H519.297L516.518 161.29V162.004H615.512V166.956H516.518V178.948H688.435V182.241H516.518V196.185H583.842V220.553H516.518V231.401H626.34V248.872H664.852V256.117H626.34V269.997H712.837V231.404H738.1V156.134H712.839ZM664.193 165.233H624.677V156.134H606.023L624.677 127.636V108.594H664.193V165.233ZM694.135 87.1767H682.739V75.7804H694.135V87.1767Z" fill="#4FB27F"/>
<path d="M25.5493 146.914H0.585938V165.355H25.5493V146.914Z" fill="#4FB27F"/>
<path d="M257.011 57.2161H238.57V75.6567H257.011V57.2161Z" fill="#4FB27F"/>
<path d="M273.316 67.7722H261.92V79.1686H273.316V67.7722Z" fill="#4FB27F"/>
<path d="M517.328 102.017H510.689V120.457H517.328V102.017Z" fill="#4FB27F"/>
<path d="M742.15 37.3425H723.709V55.7832H742.15V37.3425Z" fill="#4FB27F"/>
<path d="M758.453 47.8987H747.057V59.295H758.453V47.8987Z" fill="#4FB27F"/>
<path d="M544.904 84.877H533.508V96.2732H544.904V84.877Z" fill="#4FB27F"/>
<path d="M490.575 30.7668H479.266V42.0762H490.575V30.7668Z" fill="#4FB27F"/>
</g>
<g opacity="0.2611">
<path d="M259.39 202.115V156.134H234.126V127.246H218.41V108.805H234.126V84.877H219.948V66.4363H234.126V52.2844H180.638V48.9914H234.126V45.3692H177.711V67.3215H177.556V75.654H166.159V67.3215H151.367V57.2239H148.599V38.7832H151.367V26.4886H177.711V38.7832H234.126V9.47314H144.262L120.247 43.7227H145.898V47.0157H117.94L115.4 50.6379H140.632V57.2239H110.785L85.6159 93.1173H131.394V107.936H75.2259L37.8125 161.292V181.877H130.964V186.83H37.8125V198.822H203.884V202.115H37.8125V213.311H64.8755V224.507H37.8125V231.404H147.632V240.972H208.449V260.071H147.632V270H234.129V231.406H259.393V214.955H241.368V202.117H259.39V202.115ZM63.1816 173.566H51.7852V162.17H63.1816V173.566ZM91.0717 165.355H72.6311V146.914H91.0717V165.355ZM181.444 160.953H149.502V156.134H127.313L149.502 122.235V106.948H181.444V160.953ZM209.582 107.048H198.186V95.6516H209.582V107.048Z" fill="#4FB27F"/>
<path d="M494.732 162.006C495.714 153.21 496.236 143.929 496.236 134.124C496.236 107.899 492.648 85.2722 485.717 66.4364H404.568V53.5991H480.211C462.65 18.5803 431.011 0 387.028 0C361.129 0 339.527 6.46477 322.541 18.9122H427.397V25.4982H314.59C309.754 30.0003 305.399 35.111 301.492 40.7591H326.998V57.224H292.138C282.704 77.7168 277.814 103.468 277.814 134.124C277.814 139.693 278.012 145.062 278.331 150.307H305.921V188.946H284.274C285.486 193.514 286.837 197.924 288.381 202.117H364.035V214.955H293.892C295.686 218.532 297.63 221.936 299.714 225.168H415.1V231.754H304.382C322.891 255.893 350.747 268.596 387.023 268.596C447.972 268.596 485.201 232.8 494.121 166.962H438.354V162.009H494.732V162.006ZM433.757 30.7669H445.066V42.0763H433.757V30.7669ZM429.078 171.819V198.163H387.586V186.98C387.394 186.983 387.22 187.012 387.025 187.012C366.161 187.012 362.204 168.424 362.204 134.124C362.204 103.652 365.408 85.7069 381 82.2453V72.3717H431.054V107.277H410.016C410.932 113.452 411.327 120.747 411.441 129.011H440.274V138.89H411.454C411.285 152.789 410.295 163.827 407.537 171.819H429.078Z" fill="#4FB27F"/>
<path d="M713.424 25.498H674.73V29.1203H713.424V25.498Z" fill="#4FB27F"/>
<path d="M713.424 9.47314H674.73V18.9121H713.424V9.47314Z" fill="#4FB27F"/>
<path d="M713.427 156.134V107.372H703.554V88.9312H713.427V65.0032H705.092V46.5625H713.427V32.4107H674.734V82.2478H641.145V53.9283H639.828V37.3501H633.743V18.9095H639.828V9.47046H623.563L613.482 23.8489H631.04V27.1419H611.171L608.632 30.7642H625.771V37.3501H604.014L591.002 55.904H635.874V73.6861H578.534L561.908 97.3955H600.31V157.328H519.885L517.105 161.29V162.004H616.1V166.956H517.105V178.948H689.022V182.241H517.105V196.185H583.845V220.553H517.105V231.401H626.927V248.872H664.852V256.117H626.927V269.997H713.425V231.404H738.688V156.134H713.427ZM664.196 165.233H624.68V156.134H606.614L624.68 128.531V108.594H664.196V165.233ZM694.723 87.1767H683.327V75.7804H694.723V87.1767Z" fill="#4FB27F"/>
<path d="M26.1372 146.914H1.17383V165.355H26.1372V146.914Z" fill="#4FB27F"/>
<path d="M257.599 57.2161H239.158V75.6567H257.599V57.2161Z" fill="#4FB27F"/>
<path d="M273.902 67.7722H262.506V79.1686H273.902V67.7722Z" fill="#4FB27F"/>
<path d="M517.327 102.017H511.275V120.457H517.327V102.017Z" fill="#4FB27F"/>
<path d="M742.736 37.3425H724.295V55.7832H742.736V37.3425Z" fill="#4FB27F"/>
<path d="M759.045 47.8987H747.648V59.295H759.045V47.8987Z" fill="#4FB27F"/>
<path d="M545.49 84.877H534.094V96.2732H545.49V84.877Z" fill="#4FB27F"/>
<path d="M491.163 30.7668H479.854V42.0762H491.163V30.7668Z" fill="#4FB27F"/>
</g>
<g opacity="0.3667">
<path d="M259.979 202.115V156.134H234.716V127.246H218.999V108.805H234.716V84.877H220.537V66.4363H234.716V52.2844H181.227V48.9914H234.716V45.3692H177.716V64.2577H178.145V75.654H166.749V67.3215H151.372V57.2239H149.188V38.7832H151.372V26.4886H177.716V38.7832H234.716V9.47314H144.852L120.837 43.7227H146.488V47.0157H118.529L115.989 50.6379H141.221V57.2239H111.374L86.2077 93.1173H131.4V107.936H75.8177L38.4043 161.292V181.877H131.556V186.83H38.4043V198.822H204.476V202.115H38.4043V213.311H64.8824V224.507H38.4043V231.404H148.224V240.972H208.456V260.071H148.224V270H234.721V231.406H259.985V214.955H241.96V202.117H259.979V202.115ZM63.7681 173.566H52.3718V162.17H63.7681V173.566ZM91.6583 165.355H73.2176V146.914H91.6583V165.355ZM181.446 160.953H149.504V156.134H127.899L149.504 123.128V106.948H181.446V160.953ZM210.168 107.048H198.772V95.6516H210.168V107.048Z" fill="#4FB27F"/>
<path d="M495.315 162.006C496.298 153.21 496.819 143.929 496.819 134.124C496.819 107.899 493.231 85.2722 486.3 66.4364H405.151V53.5991H480.794C463.234 18.5803 431.595 0 387.611 0C361.713 0 340.111 6.46477 323.124 18.9122H427.983V25.4982H315.174C310.337 30.0003 305.985 35.111 302.076 40.7591H326.997V57.224H292.723C283.29 77.7168 278.4 103.468 278.4 134.124C278.4 139.693 278.598 145.062 278.917 150.307H305.922V188.946H284.86C286.072 193.514 287.423 197.924 288.967 202.117H364.621V214.955H294.478C296.272 218.532 298.216 221.936 300.3 225.168H415.686V231.754H304.968C323.477 255.893 351.333 268.596 387.609 268.596C448.558 268.596 485.787 232.8 494.707 166.962H438.939V162.009H495.315V162.006ZM434.342 30.7669H445.652V42.0763H434.342V30.7669ZM429.076 171.819V198.163H387.585V187.009C366.742 186.993 362.787 168.411 362.787 134.122C362.787 104.021 365.896 86.1258 380.999 82.356V72.369H431.052V107.275H410.599C411.516 113.45 411.911 120.744 412.024 129.008H440.272V138.887H412.037C411.869 152.786 410.878 163.824 408.12 171.817H429.076V171.819Z" fill="#4FB27F"/>
<path d="M714.009 25.498H674.73V29.1203H714.009V25.498Z" fill="#4FB27F"/>
<path d="M714.009 9.47314H674.73V18.9121H714.009V9.47314Z" fill="#4FB27F"/>
<path d="M714.013 156.134V107.372H704.14V88.9312H714.013V65.0032H705.678V46.5625H714.013V32.4107H674.735V82.2478H641.146V53.9283H639.829V37.3501H634.329V18.9095H639.829V9.47046H624.149L614.068 23.8489H631.626V27.1419H611.757L609.218 30.7642H626.357V37.3501H604.6L591.588 55.904H635.875V73.6861H579.12L562.494 97.3955H600.311V157.328H520.471L517.691 161.29V162.004H616.686V166.956H517.691V178.948H689.608V182.241H517.691V196.185H583.846V220.553H517.691V231.401H627.513V248.872H664.853V256.117H627.513V269.997H714.011V231.404H739.274V156.134H714.013ZM664.197 165.233H624.681V156.134H607.2L624.681 129.424V108.594H664.197V165.233ZM695.312 87.1767H683.915V75.7804H695.312V87.1767Z" fill="#4FB27F"/>
<path d="M26.7232 146.914H1.75977V165.355H26.7232V146.914Z" fill="#4FB27F"/>
<path d="M258.185 57.2161H239.744V75.6567H258.185V57.2161Z" fill="#4FB27F"/>
<path d="M274.49 67.7722H263.094V79.1686H274.49V67.7722Z" fill="#4FB27F"/>
<path d="M517.328 102.017H511.861V120.457H517.328V102.017Z" fill="#4FB27F"/>
<path d="M743.327 37.3425H724.887V55.7832H743.327V37.3425Z" fill="#4FB27F"/>
<path d="M759.633 47.8987H748.236V59.295H759.633V47.8987Z" fill="#4FB27F"/>
<path d="M546.078 84.877H534.682V96.2732H546.078V84.877Z" fill="#4FB27F"/>
<path d="M491.755 30.7668H480.445V42.0762H491.755V30.7668Z" fill="#4FB27F"/>
</g>
<g opacity="0.4722">
<path d="M260.561 202.115V156.134H235.297V127.246H219.583V108.805H235.297V84.877H221.119V66.4363H235.297V52.2844H181.809V48.9914H235.297V45.3692H177.712V64.2577H178.726V75.654H167.33V67.3215H151.368V57.2239H149.772V38.7832H151.368V26.4886H177.712V38.7832H235.297V9.47314H145.433L121.418 43.7227H147.069V47.0157H119.108L116.568 50.6379H141.8V57.2239H111.95L86.7839 93.1173H131.392V107.936H76.3939L38.9805 161.292V181.877H132.132V186.83H38.9805V198.822H205.052V202.115H38.9805V213.311H64.8711V224.507H38.9805V231.404H148.8V240.972H208.445V260.071H148.8V270H235.297V231.406H260.561V214.955H242.536V202.117H260.561V202.115ZM64.3495 173.566H52.9532V162.17H64.3495V173.566ZM92.2397 165.355H73.799V146.914H92.2397V165.355ZM181.442 160.953H149.501V156.134H128.483L149.501 124.024V106.95H181.442V160.953ZM210.75 107.048H199.354V95.6516H210.75V107.048Z" fill="#4FB27F"/>
<path d="M495.897 162.006C496.88 153.21 497.401 143.929 497.401 134.124C497.401 107.899 493.813 85.2722 486.88 66.4364H405.73V53.5991H481.374C463.813 18.5803 432.174 0 388.191 0C362.292 0 340.69 6.46477 323.704 18.9122H428.562V25.4982H315.753C310.919 30.0003 306.564 35.111 302.655 40.7591H326.991V57.224H293.306C283.872 77.7168 278.982 103.468 278.982 134.124C278.982 139.693 279.18 145.062 279.499 150.307H305.919V188.946H285.445C286.656 193.514 288.008 197.924 289.552 202.117H365.206V214.955H295.063C296.857 218.532 298.801 221.936 300.885 225.168H416.27V231.754H305.553C324.062 255.893 351.918 268.596 388.193 268.596C449.142 268.596 486.371 232.8 495.291 166.962H439.524V162.009H495.897V162.006ZM434.924 30.7669H446.234V42.0763H434.924V30.7669ZM429.074 171.819V198.163H387.582V186.975C367.271 186.598 363.369 168.071 363.369 134.122C363.369 104.406 366.386 86.5709 380.996 82.4929V72.3717H431.049V107.277H411.181C412.098 113.452 412.493 120.747 412.606 129.011H440.27V138.89H412.622C412.451 152.789 411.463 163.827 408.705 171.819H429.074Z" fill="#4FB27F"/>
<path d="M714.593 156.134V107.372H704.719V88.9312H714.593V65.0032H706.257V46.5625H714.593V32.4107H674.729V82.2478H641.141V53.9283H639.824V37.3501H634.908V18.9095H639.824V9.47046H624.731L614.65 23.8489H632.208V27.1419H612.339L609.8 30.7642H626.939V37.3501H605.182L592.17 55.904H635.872V73.6861H579.702L563.076 97.3955H600.308V157.328H521.053L518.273 161.29V162.004H617.268V166.956H518.273V178.948H690.19V182.241H518.273V196.185H583.841V220.553H518.273V231.401H628.095V248.872H664.85V256.117H628.095V269.997H714.593V231.404H739.856V156.134H714.593ZM664.192 165.233H624.676V156.134H607.779L624.676 130.32V108.594H664.192V165.233ZM695.891 87.1767H684.495V75.7804H695.891V87.1767Z" fill="#4FB27F"/>
<path d="M714.594 25.498H674.73V29.1203H714.594V25.498Z" fill="#4FB27F"/>
<path d="M714.594 9.47314H674.73V18.9121H714.594V9.47314Z" fill="#4FB27F"/>
<path d="M27.3052 146.914H2.3418V165.355H27.3052V146.914Z" fill="#4FB27F"/>
<path d="M258.767 57.2161H240.326V75.6567H258.767V57.2161Z" fill="#4FB27F"/>
<path d="M275.07 67.7722H263.674V79.1686H275.07V67.7722Z" fill="#4FB27F"/>
<path d="M517.325 102.017H512.443V120.457H517.325V102.017Z" fill="#4FB27F"/>
<path d="M743.909 37.3425H725.469V55.7832H743.909V37.3425Z" fill="#4FB27F"/>
<path d="M760.213 47.8987H748.816V59.295H760.213V47.8987Z" fill="#4FB27F"/>
<path d="M546.658 84.877H535.262V96.2732H546.658V84.877Z" fill="#4FB27F"/>
<path d="M492.335 30.7668H481.025V42.0762H492.335V30.7668Z" fill="#4FB27F"/>
</g>
<g opacity="0.5778">
<path d="M261.144 202.115V156.134H235.88V127.246H220.164V108.805H235.88V84.877H221.702V66.4363H235.88V52.2844H182.392V48.9914H235.88V45.3692H177.711V64.2577H179.312V75.654H167.916V67.3215H151.369V57.2239H150.358V38.7832H151.369V26.4886H177.713V38.7832H235.883V9.47314H146.019L122.004 43.7227H147.655V47.0157H119.696L117.157 50.6379H142.389V57.2239H112.539L87.3725 93.1173H131.393V107.936H76.9799L39.5664 161.292V181.877H132.718V186.83H39.5664V198.822H205.638V202.115H39.5664V213.311H64.8722V224.507H39.5664V231.404H149.386V240.972H208.446V260.071H149.386V270H235.883V231.406H261.147V214.955H243.122V202.117H261.144V202.115ZM64.9355 173.566H53.5392V162.17H64.9355V173.566ZM92.8257 165.355H74.385V146.914H92.8257V165.355ZM181.441 160.953H149.499V156.134H129.067L149.499 124.917V106.948H181.441V160.953ZM211.336 107.048H199.939V95.6516H211.336V107.048Z" fill="#4FB27F"/>
<path d="M496.486 162.006C497.469 153.21 497.991 143.929 497.991 134.124C497.991 107.899 494.403 85.2722 487.471 66.4364H406.322V53.5991H481.966C464.405 18.5803 432.766 0 388.782 0C362.884 0 341.282 6.46477 324.295 18.9122H429.154V25.4982H316.345C311.511 30.0003 307.156 35.111 303.247 40.7591H326.998V57.224H293.897C284.464 77.7168 279.574 103.468 279.574 134.124C279.574 139.693 279.772 145.062 280.091 150.307H305.926V188.946H286.036C287.248 193.514 288.6 197.924 290.143 202.117H365.797V214.955H295.654C297.448 218.532 299.393 221.936 301.476 225.168H416.862V231.754H306.145C324.654 255.893 352.51 268.596 388.785 268.596C449.734 268.596 486.963 232.8 495.883 166.962H440.116V162.009H496.486V162.006ZM435.511 30.7669H446.82V42.0763H435.511V30.7669ZM429.075 171.819V198.163H387.584V186.941C367.797 186.211 363.959 167.734 363.959 134.122C363.959 104.825 366.914 87.1058 380.998 82.7011V72.369H431.051V107.275H411.77C412.687 113.45 413.082 120.744 413.195 129.008H440.274V138.887H413.211C413.042 152.786 412.052 163.824 409.294 171.817H429.075V171.819Z" fill="#4FB27F"/>
<path d="M715.179 25.498H674.73V29.1203H715.179V25.498Z" fill="#4FB27F"/>
<path d="M715.184 156.134V107.372H705.311V88.9312H715.184V65.0032H706.849V46.5625H715.184V32.4107H674.736V82.2478H641.148V53.9283H639.831V37.3501H635.502V18.9095H639.831V9.47046H625.323L615.241 23.8489H632.799V27.1419H612.931L610.391 30.7642H627.531V37.3501H605.773L592.762 55.904H635.879V73.6861H580.294L563.668 97.3955H600.315V157.328H521.644L518.865 161.29V162.004H617.86V166.956H518.865V178.948H690.782V182.241H518.865V196.185H583.847V220.553H518.865V231.401H628.687V248.872H664.857V256.117H628.687V269.997H715.184V231.404H740.448V156.134H715.184ZM664.196 165.233H624.68V156.134H608.368L624.68 131.213V108.594H664.196V165.233ZM696.48 87.1767H685.084V75.7804H696.48V87.1767Z" fill="#4FB27F"/>
<path d="M715.179 9.47314H674.73V18.9121H715.179V9.47314Z" fill="#4FB27F"/>
<path d="M27.8911 146.914H2.92773V165.355H27.8911V146.914Z" fill="#4FB27F"/>
<path d="M259.359 57.2161H240.918V75.6567H259.359V57.2161Z" fill="#4FB27F"/>
<path d="M275.658 67.7722H264.262V79.1686H275.658V67.7722Z" fill="#4FB27F"/>
<path d="M517.326 102.017H513.029V120.457H517.326V102.017Z" fill="#4FB27F"/>
<path d="M744.495 37.3425H726.055V55.7832H744.495V37.3425Z" fill="#4FB27F"/>
<path d="M760.801 47.8987H749.404V59.295H760.801V47.8987Z" fill="#4FB27F"/>
<path d="M547.25 84.877H535.854V96.2732H547.25V84.877Z" fill="#4FB27F"/>
<path d="M492.923 30.7668H481.613V42.0762H492.923V30.7668Z" fill="#4FB27F"/>
</g>
<g opacity="0.6833">
<path d="M261.729 202.115V156.134H236.465V127.246H220.751V108.805H236.465V84.877H222.287V66.4363H236.465V52.2844H182.977V48.9914H236.465V45.3692H177.708V64.2577H179.894V75.654H168.498V67.3215H151.367V57.2239H150.94V38.7832H151.367V26.4886H177.71V38.7832H236.468V9.47314H146.604L122.589 43.7227H148.24V47.0157H120.281L117.741 50.6379H142.974V57.2239H113.123L87.9571 93.1173H131.393V107.936H77.5619L40.1484 161.292V181.877H133.3V186.83H40.1484V198.822H206.22V202.115H40.1484V213.311H64.8694V224.507H40.1484V231.404H149.968V240.972H208.443V260.071H149.968V270H236.465V231.406H261.729V214.955H243.704V202.117H261.729V202.115ZM65.5201 173.566H54.1238V162.17H65.5201V173.566ZM93.4103 165.355H74.9697V146.914H93.4103V165.355ZM181.441 160.953H149.499V156.134H129.651L149.499 125.813V106.948H181.441V160.953ZM211.92 107.048H200.524V95.6516H211.92V107.048Z" fill="#4FB27F"/>
<path d="M497.072 162.006C498.054 153.21 498.576 143.929 498.576 134.124C498.576 107.899 494.988 85.2722 488.054 66.4364H406.905V53.5991H482.548C464.988 18.5803 433.349 0 389.365 0C363.467 0 341.862 6.46477 324.878 18.9122H429.737V25.4982H316.928C312.094 30.0003 307.739 35.111 303.829 40.7591H326.994V57.224H294.477C285.044 77.7168 280.154 103.468 280.154 134.124C280.154 139.693 280.352 145.062 280.671 150.307H305.921V188.946H286.616C287.828 193.514 289.18 197.924 290.723 202.117H366.378V214.955H296.235C298.029 218.532 299.973 221.936 302.057 225.168H417.442V231.754H306.725C325.234 255.893 353.09 268.596 389.365 268.596C450.317 268.596 487.543 232.8 496.463 166.962H440.696V162.009H497.072V162.006ZM436.096 30.7669H447.406V42.0763H436.096V30.7669ZM440.272 138.89H413.794C413.622 152.789 412.635 163.827 409.876 171.819H429.076V198.163H387.584V186.907C368.314 185.829 364.544 167.396 364.544 134.122C364.544 105.241 367.429 87.6274 380.998 82.9118V72.369H431.052V107.275H412.355C413.272 113.45 413.667 120.744 413.781 129.008H440.272V138.89Z" fill="#4FB27F"/>
<path d="M715.764 25.498H674.73V29.1203H715.764V25.498Z" fill="#4FB27F"/>
<path d="M715.767 156.134V107.372H705.893V88.9312H715.767V65.0032H707.432V46.5625H715.767V32.4107H674.734V82.2478H641.146V53.9283H639.829V37.3501H636.085V18.9095H639.829V9.47046H625.906L615.824 23.8489H633.382V27.1419H613.514L610.974 30.7642H628.113V37.3501H606.356L593.345 55.904H635.877V73.6861H580.876L564.251 97.3955H600.31V157.328H522.225L519.445 161.29V162.004H618.44V166.956H519.445V178.948H691.362V182.241H519.445V196.185H583.843V220.553H519.445V231.401H629.267V248.872H664.853V256.117H629.267V269.997H715.765V231.404H741.028V156.134H715.767ZM664.194 165.233H624.678V156.134H608.954L624.678 132.109V108.594H664.194V165.233ZM697.063 87.1767H685.667V75.7804H697.063V87.1767Z" fill="#4FB27F"/>
<path d="M715.764 9.47314H674.73V18.9121H715.764V9.47314Z" fill="#4FB27F"/>
<path d="M28.4771 146.914H3.51367V165.355H28.4771V146.914Z" fill="#4FB27F"/>
<path d="M259.939 57.2161H241.498V75.6567H259.939V57.2161Z" fill="#4FB27F"/>
<path d="M276.244 67.7722H264.848V79.1686H276.244V67.7722Z" fill="#4FB27F"/>
<path d="M517.329 102.017H513.617V120.457H517.329V102.017Z" fill="#4FB27F"/>
<path d="M745.077 37.3425H726.637V55.7832H745.077V37.3425Z" fill="#4FB27F"/>
<path d="M761.387 47.8987H749.99V59.295H761.387V47.8987Z" fill="#4FB27F"/>
<path d="M547.832 84.877H536.436V96.2732H547.832V84.877Z" fill="#4FB27F"/>
<path d="M493.503 30.7668H482.193V42.0762H493.503V30.7668Z" fill="#4FB27F"/>
</g>
<g opacity="0.7889">
<path d="M262.318 202.115V156.134H237.054V127.246H221.337V108.805H237.054V84.877H222.876V66.4363H237.054V52.2844H183.566V48.9914H237.054V45.3692H177.712V64.2577H180.483V75.654H169.087V67.3215H151.368V26.4886H177.712V38.7832H237.054V9.47314H147.193L123.178 43.7227H148.829V47.0157H120.87L118.331 50.6379H143.56V57.2239H113.71L88.5437 93.1173H131.394V107.936H78.1537L40.7402 161.292V181.877H133.892V186.83H40.7402V198.822H206.811V202.115H40.7402V213.311H64.8764V224.507H40.7402V231.404H150.56V240.972H208.45V260.071H150.56V270H237.057V231.406H262.32V214.955H244.296V202.117H262.318V202.115ZM66.1093 173.566H54.713V162.17H66.1093V173.566ZM93.9995 165.355H75.5588V146.914H93.9995V165.355ZM181.445 160.953H149.503V156.134H130.241L149.503 126.706V106.948H181.445V160.953ZM212.51 107.048H201.113V95.6516H212.51V107.048Z" fill="#4FB27F"/>
<path d="M497.657 162.006C498.64 153.21 499.161 143.929 499.161 134.124C499.161 107.899 495.573 85.2722 488.642 66.4364H407.493V53.5991H483.136C465.575 18.5803 433.937 0 389.953 0C364.054 0 342.45 6.46477 325.466 18.9122H430.325V25.4982H317.515C312.679 30.0003 308.327 35.111 304.417 40.7591H326.997V57.224H295.065C285.632 77.7168 280.742 103.468 280.742 134.124C280.742 139.693 280.94 145.062 281.259 150.307H305.922V188.946H287.202C288.413 193.514 289.765 197.924 291.309 202.117H366.963V214.955H296.822C298.616 218.532 300.561 221.936 302.644 225.168H418.03V231.754H307.31C325.819 255.893 353.675 268.596 389.95 268.596C450.902 268.596 488.128 232.8 497.048 166.962H441.281V162.009H497.657V162.006ZM436.682 30.7669H447.991V42.0763H436.682V30.7669ZM440.272 138.89H414.379C414.208 152.789 413.22 163.827 410.462 171.819H429.076V198.163H387.585V186.872C368.82 185.458 365.129 167.059 365.129 134.122C365.129 105.66 367.93 88.1384 380.999 83.1226V72.3717H431.052V107.277H412.941C413.857 113.452 414.252 120.747 414.366 129.011H440.272V138.89Z" fill="#4FB27F"/>
<path d="M716.351 25.498H674.73V29.1203H716.351V25.498Z" fill="#4FB27F"/>
<path d="M716.355 156.134V107.372H706.481V88.9312H716.355V65.0032H708.02V46.5625H716.355V32.4107H674.734V82.2478H641.146V53.9283H639.829V37.3501H636.67V18.9095H639.829V9.47046H626.491L616.409 23.8489H633.967V27.1419H614.099L611.559 30.7642H628.699V37.3501H606.941L593.93 55.904H635.875V73.6861H581.462L564.836 97.3955H600.311V157.328H522.812L520.033 161.29V162.004H619.028V166.956H520.038V178.948H691.955V182.241H520.038V196.185H583.851V220.553H520.038V231.401H629.86V248.872H664.858V256.117H629.86V269.997H716.358V231.404H741.621V156.134H716.355ZM664.197 165.233H624.681V156.134H609.541L624.681 133.002V108.594H664.197V165.233ZM697.651 87.1767H686.255V75.7804H697.651V87.1767Z" fill="#4FB27F"/>
<path d="M716.351 9.47314H674.73V18.9121H716.351V9.47314Z" fill="#4FB27F"/>
<path d="M29.0623 146.914H4.10156V165.355H29.0623V146.914Z" fill="#4FB27F"/>
<path d="M260.527 57.2161H242.086V75.6567H260.527V57.2161Z" fill="#4FB27F"/>
<path d="M276.83 67.7722H265.434V79.1686H276.83V67.7722Z" fill="#4FB27F"/>
<path d="M517.328 102.017H514.203V120.457H517.328V102.017Z" fill="#4FB27F"/>
<path d="M745.663 37.3425H727.223V55.7832H745.663V37.3425Z" fill="#4FB27F"/>
<path d="M761.972 47.8987H750.576V59.295H761.972V47.8987Z" fill="#4FB27F"/>
<path d="M548.418 84.877H537.021V96.2732H548.418V84.877Z" fill="#4FB27F"/>
<path d="M494.095 30.7668H482.785V42.0762H494.095V30.7668Z" fill="#4FB27F"/>
</g>
<g opacity="0.8944">
<path d="M262.9 202.115V156.134H237.636V127.246H221.919V108.805H237.636V84.877H223.458V66.4363H237.636V52.2844H184.148V48.9914H237.636V45.3692H177.709V64.2577H181.066V75.654H169.669V67.3215H151.366V26.4886H177.709V38.7832H237.636V9.47314H147.772L123.757 43.7227H149.408V47.0157H121.45L118.91 50.6379H144.142V57.2239H114.295L89.1257 93.1173H131.392V107.936H78.7357L41.3223 161.292V181.877H134.474V186.83H41.3223V198.822H207.393V202.115H41.3223V213.311H64.871V224.507H41.3223V231.404H151.142V240.972H208.447V260.071H151.139V270H237.636V231.406H262.9V214.955H244.875V202.117H262.9V202.115ZM66.6887 173.566H55.2924V162.17H66.6887V173.566ZM94.5789 165.355H76.1382V146.914H94.5789V165.355ZM181.44 160.953H149.498V156.134H130.823L149.498 127.601V106.948H181.44V160.953ZM213.089 107.048H201.693V95.6516H213.089V107.048Z" fill="#4FB27F"/>
<path d="M498.24 162.006C499.222 153.21 499.744 143.929 499.744 134.124C499.744 107.899 496.156 85.2722 489.225 66.4364H408.073V53.5991H483.716C466.156 18.5803 434.517 0 390.533 0C364.634 0 343.033 6.46477 326.046 18.9122H430.905V25.4982H318.096C313.261 30.0003 308.907 35.111 304.997 40.7591H326.992V57.224H295.645C286.212 77.7168 281.322 103.468 281.322 134.124C281.322 139.693 281.52 145.062 281.839 150.307H305.917V188.946H287.782C288.994 193.514 290.345 197.924 291.889 202.117H367.543V214.955H297.402C299.196 218.532 301.141 221.936 303.224 225.168H418.61V231.754H307.893C326.402 255.893 354.258 268.596 390.533 268.596C451.482 268.596 488.711 232.8 497.631 166.962H441.864V162.009H498.24V162.006ZM437.267 30.7669H448.576V42.0763H437.267V30.7669ZM440.27 138.89H414.962C414.79 152.789 413.803 163.827 411.044 171.819H429.074V198.163H387.583V186.838C369.316 185.091 365.712 166.722 365.712 134.122C365.712 106.079 368.415 88.6363 380.997 83.3307V72.369H431.05V107.275H413.523C414.44 113.45 414.835 120.744 414.949 129.008H440.27V138.89Z" fill="#4FB27F"/>
<path d="M716.936 25.498H674.73V29.1203H716.936V25.498Z" fill="#4FB27F"/>
<path d="M716.936 9.47314H674.73V18.9121H716.936V9.47314Z" fill="#4FB27F"/>
<path d="M716.932 156.134V107.372H707.059V88.9312H716.932V65.0032H708.597V46.5625H716.932V32.4107H674.727V82.2478H641.139V53.9283H639.822V37.3501H637.248V18.9095H639.822V9.47046H627.071L616.989 23.8489H634.548V27.1419H614.679L612.14 30.7642H629.279V37.3501H607.521L594.51 55.904H635.87V73.6861H582.042L565.416 97.3955H600.306V157.328H523.393L520.613 161.29V162.004H619.608V166.956H520.613V178.948H692.53V182.241H520.613V196.185H583.841V220.553H520.613V231.401H630.435V248.872H664.848V256.117H630.435V269.997H716.932V231.404H742.196V156.134H716.932ZM664.19 165.233H624.674V156.134H610.119L624.674 133.897V108.594H664.19V165.233ZM698.231 87.1767H686.835V75.7804H698.231V87.1767Z" fill="#4FB27F"/>
<path d="M29.645 146.914H4.68164V165.355H29.645V146.914Z" fill="#4FB27F"/>
<path d="M261.107 57.2161H242.666V75.6567H261.107V57.2161Z" fill="#4FB27F"/>
<path d="M277.412 67.7722H266.016V79.1686H277.412V67.7722Z" fill="#4FB27F"/>
<path d="M517.325 102.017H514.785V120.457H517.325V102.017Z" fill="#4FB27F"/>
<path d="M746.249 37.3425H727.809V55.7832H746.249V37.3425Z" fill="#4FB27F"/>
<path d="M762.554 47.8987H751.158V59.295H762.554V47.8987Z" fill="#4FB27F"/>
<path d="M549 84.877H537.604V96.2732H549V84.877Z" fill="#4FB27F"/>
<path d="M494.677 30.7668H483.367V42.0762H494.677V30.7668Z" fill="#4FB27F"/>
</g>
<path d="M263.486 202.115V156.134H238.222V127.246H222.505V108.805H238.222V84.877H224.044V66.4363H238.222V52.2844H184.734V48.9914H238.222V45.3692H177.71V64.2577H181.651V75.654H170.255V67.3215H151.367V26.4886H177.71V38.7832H238.222V9.47314H148.358L124.343 43.7227H149.994V47.0157H122.035L119.496 50.6379H144.728V57.2239H114.878L89.7116 93.1173H131.393V107.936H79.3216L41.9082 161.292V181.877H135.06V186.83H41.9082V198.822H207.979V202.115H41.9082V213.311H64.8721V224.507H41.9082V231.404H151.728V240.972H208.446V260.071H151.728V270H238.225V231.406H263.488V214.955H245.464V202.117H263.486V202.115ZM67.2746 173.566H55.8783V162.17H67.2746V173.566ZM95.1648 165.355H76.7242V146.914H95.1648V165.355ZM181.441 160.953H149.499V156.134H131.409L149.499 128.494V106.948H181.441V160.953ZM213.678 107.048H202.281V95.6516H213.678V107.048Z" fill="#4FB27F"/>
<path d="M498.825 162.006C499.808 153.21 500.329 143.929 500.329 134.124C500.329 107.899 496.741 85.2722 489.807 66.4364H408.658V53.5991H484.302C466.741 18.5803 435.102 0 391.118 0C365.22 0 343.618 6.46477 326.631 18.9122H431.49V25.4982H318.681C313.847 30.0003 309.492 35.111 305.583 40.7591H326.992V57.224H296.233C286.8 77.7168 281.91 103.468 281.91 134.124C281.91 139.693 282.108 145.062 282.426 150.307H305.92V188.946H288.372C289.584 193.514 290.936 197.924 292.479 202.117H368.133V214.955H297.99C299.784 218.532 301.729 221.936 303.812 225.168H419.198V231.754H308.48C326.99 255.893 354.846 268.596 391.121 268.596C452.073 268.596 489.299 232.8 498.219 166.962H442.452V162.009H498.825V162.006ZM437.852 30.7669H449.162V42.0763H437.852V30.7669ZM440.271 138.89H415.55C415.378 152.789 414.39 163.827 411.632 171.819H429.077V198.163H387.586V186.804C369.809 184.736 366.3 166.385 366.3 134.122C366.3 106.503 368.903 89.1474 381 83.5599V72.3717H431.053V107.277H414.114C415.028 113.452 415.426 120.747 415.539 129.011H440.276V138.89H440.271Z" fill="#4FB27F"/>
<path d="M717.521 25.498H674.73V29.1203H717.521V25.498Z" fill="#4FB27F"/>
<path d="M717.524 156.134V107.372H707.651V88.9312H717.524V65.0032H709.189V46.5625H717.524V32.4107H674.734V82.2478H641.146V53.9283H639.829V37.3501H637.84V18.9095H639.829V9.47046H627.663L617.581 23.8489H635.139V27.1419H615.271L612.731 30.7642H629.871V37.3501H608.113L595.102 55.904H635.877V73.6861H582.634L566.008 97.3955H600.313V157.328H523.984L521.205 161.29V162.004H620.2V166.956H521.205V178.948H693.122V182.241H521.205V196.185H583.845V220.553H521.205V231.401H631.027V248.872H664.855V256.117H631.027V269.997H717.524V231.404H742.788V156.134H717.524ZM664.194 165.233H624.678V156.134H610.708L624.678 134.79V108.594H664.194V165.233ZM698.82 87.1767H687.424V75.7804H698.82V87.1767Z" fill="#4FB27F"/>
<path d="M717.521 9.47314H674.73V18.9121H717.521V9.47314Z" fill="#4FB27F"/>
<path d="M30.2329 146.914H5.26953V165.355H30.2329V146.914Z" fill="#4FB27F"/>
<path d="M261.695 57.2161H243.254V75.6567H261.695V57.2161Z" fill="#4FB27F"/>
<path d="M277.998 67.7722H266.602V79.1686H277.998V67.7722Z" fill="#4FB27F"/>
<path d="M517.326 102.017H515.371V120.457H517.326V102.017Z" fill="#4FB27F"/>
<path d="M746.835 37.3425H728.395V55.7832H746.835V37.3425Z" fill="#4FB27F"/>
<path d="M763.14 47.8987H751.744V59.295H763.14V47.8987Z" fill="#4FB27F"/>
<path d="M549.592 84.877H538.195V96.2732H549.592V84.877Z" fill="#4FB27F"/>
<path d="M495.263 30.7668H483.953V42.0762H495.263V30.7668Z" fill="#4FB27F"/>
<g opacity="0.05">
<path d="M254.029 127.246H238.312V108.805H254.029V84.877H239.851V66.4363H254.029V52.2844H200.54V48.9915H254.029V45.3692H191.76V38.7832H254.029V12.4395H162.084L140.15 43.7227H165.801V47.0157H137.842L135.303 50.6379H160.535V57.2239H130.685L57.7148 161.292V181.877H150.866V186.83H57.7148V198.822H223.786V202.115H57.7148V226.483H163.662V231.404H167.534V267.974H254.031V231.404H279.295V214.952H261.271V202.115H279.295V156.134H254.031L254.029 127.246ZM83.0839 173.566H71.6876V162.17H83.0839V173.566ZM110.971 165.355H92.5308V146.914H110.971V165.355ZM168.501 38.7832H186.942V57.2239H168.501V38.7832ZM173.849 156.134H147.215L173.846 115.446V156.134H173.849ZM197.458 75.6567H194.613V80.9333H163V59.8583H194.613V64.2577H197.458V75.6567ZM229.484 107.048H222.935V112.546H198.567V93.4466H222.935V95.6516H229.484V107.048Z" fill="#9BCFB9"/>
<path d="M514.632 162.006C515.615 153.21 516.136 143.929 516.136 134.124C516.136 107.899 512.548 85.2722 505.615 66.4364H424.465V53.5991H500.109C482.548 18.5803 450.909 0 406.926 0C381.027 0 359.425 6.46477 342.439 18.9122H447.297V25.4982H334.488C310.434 47.8983 297.715 84.6374 297.715 134.124C297.715 160.476 301.319 183.208 308.281 202.117H383.935V214.955H379.681V218.582H315.734C316.975 220.843 318.252 223.056 319.614 225.168H435V231.754H324.283C342.792 255.893 370.648 268.596 406.923 268.596C467.875 268.596 505.101 232.8 514.021 166.962H458.259V162.009H514.632V162.006ZM453.66 30.7669H464.969V42.0763H453.66V30.7669ZM406.928 187.012C386.064 187.012 382.107 168.424 382.107 134.124C382.107 100.051 386.061 81.5867 406.928 81.5867C427.495 81.5867 431.396 100.051 431.396 134.124C431.394 168.424 427.495 187.012 406.928 187.012Z" fill="#9BCFB9"/>
<path d="M649.616 172.149C638.783 169.823 627.758 167.797 616.783 166.959H537.012V172.149H649.616Z" fill="#9BCFB9"/>
<path d="M733.331 156.134V107.372H723.457V88.9311H733.331V65.003H724.996V46.5624H733.331V32.4105H685.686V29.1175H733.331V25.4952H676.905V18.9093H733.331V10.6821H642.619L633.385 23.8488H650.943V27.1417H631.075L628.535 30.764H645.675V37.3499H623.917L537.012 161.29V162.004H636.006V165.526C644.12 166.956 652.184 168.724 660.153 170.455C662.606 170.987 665.05 171.553 667.49 172.146H686.094L670.369 156.421C668.567 154.619 671.362 151.824 673.164 153.626L691.687 172.148H704.698V178.95H708.926V182.243H704.698V185.16L706.755 187.217C707.253 187.715 707.377 188.284 707.293 188.814C707.917 189.106 708.536 189.406 709.176 189.672C711.495 190.639 710.472 194.462 708.125 193.484C706.95 192.994 705.818 192.449 704.701 191.88V196.19H537.014V223.851H645.098V231.406H646.834V262.049H733.331V231.406H758.595V156.137H733.331V156.134ZM568.226 153.695H556.83V142.298H568.226V153.695ZM596.117 145.483H577.676V127.043H596.117V145.483ZM653.148 156.134H626.517L653.148 115.446V156.134ZM653.646 37.3526V18.9119H672.087V37.3526H653.646ZM682.603 55.7827H671.207V44.3863H682.603V55.7827ZM714.627 87.1766H706.347V95.4222H685.272V66.444H706.347V75.7776H714.627V87.1766Z" fill="#9BCFB9"/>
<path d="M46.0376 146.914H21.0742V165.355H46.0376V146.914Z" fill="#9BCFB9"/>
<path d="M277.499 57.2161H259.059V75.6567H277.499V57.2161Z" fill="#9BCFB9"/>
<path d="M293.805 67.7722H282.408V79.1686H293.805V67.7722Z" fill="#9BCFB9"/>
<path d="M556.141 102.017H531.178V120.457H556.141V102.017Z" fill="#9BCFB9"/>
<path d="M762.642 37.3425H744.201V55.7832H762.642V37.3425Z" fill="#9BCFB9"/>
<path d="M778.947 47.8987H767.551V59.295H778.947V47.8987Z" fill="#9BCFB9"/>
<path d="M565.398 84.877H554.002V96.2732H565.398V84.877Z" fill="#9BCFB9"/>
<path d="M511.069 30.7668H499.76V42.0762H511.069V30.7668Z" fill="#9BCFB9"/>
</g>
<g opacity="0.1556">
<path d="M252.863 127.246H237.147V108.805H252.863V84.877H238.685V66.4363H252.863V52.2844H199.375V48.9915H252.863V45.3692H190.595V38.7832H252.863V12.4395H160.918L138.982 43.7227H164.633V47.0157H136.674L134.135 50.6379H159.364V57.2239H129.517L56.5469 161.292V181.877H149.698V186.83H56.5469V198.822H222.618V202.115H56.5469V226.483H163.666V231.404H166.366V267.974H252.863V231.404H278.127V214.952H260.103V202.115H278.127V156.134H252.863V127.246ZM81.9159 173.566H70.5196V162.17H81.9159V173.566ZM109.806 165.355H91.3655V146.914H109.806V165.355ZM167.336 38.7832H185.776V57.2239H167.336V38.7832ZM172.681 156.134H146.05L172.681 115.446V156.134ZM196.293 75.6567H194.62V80.9333H163.007V59.8583H194.62V64.2577H196.293V75.6567ZM228.316 107.048H222.937V112.546H198.569V93.4466H222.937V95.6516H228.316V107.048Z" fill="#9BCFB9"/>
<path d="M513.462 162.006C514.444 153.21 514.966 143.929 514.966 134.124C514.966 107.899 511.378 85.2722 504.447 66.4364H423.297V53.5991H498.941C481.38 18.5803 449.741 0 405.758 0C379.859 0 358.255 6.46477 341.271 18.9122H446.13V25.4982H333.32C309.266 47.8983 296.547 84.6374 296.547 134.124C296.547 160.476 300.151 183.208 307.113 202.117H382.767V214.955H379.683V218.582H314.566C315.807 220.843 317.085 223.056 318.446 225.168H433.832V231.754H323.115C341.624 255.893 369.48 268.596 405.755 268.596C466.707 268.596 503.933 232.8 512.853 166.962H457.086V162.009H513.462V162.006ZM452.486 30.7669H463.796V42.0763H452.486V30.7669ZM405.755 187.012C384.891 187.012 380.934 168.424 380.934 134.124C380.934 100.051 384.888 81.5867 405.755 81.5867C426.322 81.5867 430.223 100.051 430.223 134.124C430.223 168.424 426.322 187.012 405.755 187.012Z" fill="#9BCFB9"/>
<path d="M649.617 172.149C638.785 169.823 627.76 167.797 616.785 166.959H535.844V172.149H649.617Z" fill="#9BCFB9"/>
<path d="M732.159 156.134V107.372H722.285V88.9311H732.159V65.003H723.824V46.5624H732.159V32.4105H684.514V29.1175H732.159V25.4952H675.733V18.9093H732.159V10.6821H641.447L632.213 23.8488H649.771V27.1417H629.903L627.363 30.764H644.503V37.3499H622.745L535.84 161.29V162.004H634.834V165.312C643.344 166.774 651.797 168.642 660.154 170.455C662.606 170.987 665.051 171.553 667.49 172.146H686.094L670.37 156.421C668.568 154.619 671.363 151.824 673.165 153.626L691.687 172.148H704.698V178.95H707.757V182.243H704.698V185.16L706.756 187.217C707.254 187.715 707.377 188.284 707.293 188.814C707.917 189.106 708.536 189.406 709.177 189.672C711.495 190.639 710.473 194.462 708.126 193.484C706.951 192.994 705.818 192.449 704.701 191.88V196.19H535.842V223.851H645.098V231.406H645.664V262.049H732.162V231.406H757.425V156.137H732.159V156.134ZM567.057 153.695H555.661V142.298H567.057V153.695ZM594.945 145.483H576.504V127.043H594.945V145.483ZM651.979 156.134H625.348L651.979 115.446V156.134ZM652.474 37.3526V18.9119H670.915V37.3526H652.474ZM681.431 55.7827H670.035V44.3863H681.431V55.7827ZM713.455 87.1766H706.345V95.4222H685.27V66.444H706.345V75.7776H713.455V87.1766Z" fill="#9BCFB9"/>
<path d="M44.867 146.914H19.9062V165.355H44.867V146.914Z" fill="#9BCFB9"/>
<path d="M276.331 57.2161H257.891V75.6567H276.331V57.2161Z" fill="#9BCFB9"/>
<path d="M292.637 67.7722H281.24V79.1686H292.637V67.7722Z" fill="#9BCFB9"/>
<path d="M554.973 102.017H530.01V120.457H554.973V102.017Z" fill="#9BCFB9"/>
<path d="M761.47 37.3425H743.029V55.7832H761.47V37.3425Z" fill="#9BCFB9"/>
<path d="M777.779 47.8987H766.383V59.295H777.779V47.8987Z" fill="#9BCFB9"/>
<path d="M564.224 84.877H552.828V96.2732H564.224V84.877Z" fill="#9BCFB9"/>
<path d="M509.901 30.7668H498.592V42.0762H509.901V30.7668Z" fill="#9BCFB9"/>
</g>
<g opacity="0.2611">
<path d="M251.687 127.246H235.97V108.805H251.687V84.877H237.509V66.4363H251.687V52.2844H198.199V48.9915H251.687V45.3692H189.418V38.7832H251.687V12.4395H159.742L137.808 43.7227H163.459V47.0157H135.5L132.961 50.6379H158.193V57.2239H128.343L55.373 161.292V181.877H148.525V186.83H55.373V198.822H221.444V202.115H55.373V226.483H163.662V231.404H165.192V267.974H251.69V231.404H276.953V214.952H258.929V202.115H276.953V156.134H251.69V127.246H251.687ZM80.7421 173.566H69.3458V162.17H80.7421V173.566ZM108.632 165.355H90.1916V146.914H108.632V165.355ZM166.162 38.7832H184.603V57.2239H166.162V38.7832ZM171.507 156.134H144.876L171.507 115.446V156.134ZM195.116 75.6567H194.613V80.9333H163.001V59.8583H194.613V64.2577H195.116V75.6567ZM227.142 107.048H222.935V112.546H198.567V93.4466H222.935V95.6516H227.142V107.048Z" fill="#9BCFB9"/>
<path d="M512.294 162.006C513.276 153.21 513.798 143.929 513.798 134.124C513.798 107.899 510.21 85.2722 503.279 66.4364H422.129V53.5991H497.773C480.212 18.5803 448.573 0 404.59 0C378.691 0 357.089 6.46477 340.103 18.9122H444.962V25.4982H332.152C308.098 47.8983 295.379 84.6374 295.379 134.124C295.379 160.476 298.983 183.208 305.945 202.117H381.6V214.955H379.687V218.582H313.395C314.636 220.843 315.914 223.056 317.276 225.168H432.662V231.754H321.944C340.453 255.893 368.309 268.596 404.584 268.596C465.533 268.596 502.762 232.8 511.682 166.962H455.915V162.009H512.294V162.006ZM451.318 30.7669H462.628V42.0763H451.318V30.7669ZM404.587 187.012C383.723 187.012 379.766 168.424 379.766 134.124C379.766 100.051 383.72 81.5867 404.587 81.5867C425.154 81.5867 429.055 100.051 429.055 134.124C429.053 168.424 425.154 187.012 404.587 187.012Z" fill="#9BCFB9"/>
<path d="M649.616 172.149C638.783 169.823 627.758 167.797 616.783 166.959H534.67V172.149H649.616Z" fill="#9BCFB9"/>
<path d="M730.989 156.134V107.372H721.115V88.9311H730.989V65.003H722.654V46.5624H730.989V32.4105H683.344V29.1175H730.989V25.4952H674.563V18.9093H730.989V10.6821H640.277L631.043 23.8488H648.602V27.1417H628.733L626.193 30.764H643.333V37.3499H621.575L534.67 161.29V162.004H633.665V165.123C642.569 166.611 651.415 168.558 660.153 170.455C662.606 170.987 665.051 171.553 667.49 172.146H686.094L670.369 156.421C668.567 154.619 671.363 151.824 673.164 153.626L691.687 172.148H704.698V178.95H706.584V182.243H704.698V185.16L706.755 187.217C707.253 187.715 707.377 188.284 707.293 188.814C707.917 189.106 708.536 189.406 709.176 189.672C711.495 190.639 710.473 194.462 708.125 193.484C706.95 192.994 705.818 192.449 704.701 191.88V196.19H534.672V223.851H645.098V244.926H644.492V262.049H730.989V231.406H756.253V156.137H730.989V156.134ZM565.885 153.695H554.488V142.298H565.885V153.695ZM593.775 145.483H575.334V127.043H593.775V145.483ZM650.806 156.134H624.176L650.806 115.446V156.134ZM651.304 37.3526V18.9119H669.745V37.3526H651.304ZM680.261 55.7827H668.865V44.3863H680.261V55.7827ZM712.285 87.1766H706.344V95.4222H685.269V66.444H706.344V75.7776H712.285V87.1766Z" fill="#9BCFB9"/>
<path d="M43.6978 146.914H18.7344V165.355H43.6978V146.914Z" fill="#9BCFB9"/>
<path d="M275.163 57.2161H256.723V75.6567H275.163V57.2161Z" fill="#9BCFB9"/>
<path d="M291.465 67.7722H280.068V79.1686H291.465V67.7722Z" fill="#9BCFB9"/>
<path d="M553.805 102.017H528.842V120.457H553.805V102.017Z" fill="#9BCFB9"/>
<path d="M760.302 37.3425H741.861V55.7832H760.302V37.3425Z" fill="#9BCFB9"/>
<path d="M776.605 47.8987H765.209V59.295H776.605V47.8987Z" fill="#9BCFB9"/>
<path d="M563.057 84.877H551.66V96.2732H563.057V84.877Z" fill="#9BCFB9"/>
<path d="M508.729 30.7668H497.42V42.0762H508.729V30.7668Z" fill="#9BCFB9"/>
</g>
<g opacity="0.3667">
<path d="M250.522 127.246H234.805V108.805H250.522V84.877H236.344V66.4363H250.522V52.2844H197.034V48.9915H250.522V45.3692H188.253V38.7832H250.522V12.4395H158.577L136.643 43.7227H162.294V47.0157H134.336L131.796 50.6379H157.028V57.2239H127.181L54.2109 161.292V181.877H147.363V186.83H54.2109V198.822H220.282V202.115H54.2109V226.483H163.672V231.404H164.03V267.974H250.527V231.404H275.791V214.952H257.767V202.115H275.791V156.134H250.527V127.246H250.522ZM79.5748 173.566H68.1784V162.17H79.5748V173.566ZM107.465 165.355H89.0242V146.914H107.465V165.355ZM164.994 38.7832H183.435V57.2239H164.994V38.7832ZM170.34 156.134H143.709L170.34 115.446V156.134ZM194.618 80.9333H163.006V59.8583H194.618V80.9333ZM225.975 107.048H222.938V112.546H198.57V93.4466H222.938V95.6516H225.975V107.048Z" fill="#9BCFB9"/>
<path d="M511.122 162.006C512.104 153.21 512.626 143.929 512.626 134.124C512.626 107.899 509.038 85.2722 502.107 66.4364H420.958V53.5991H496.601C479.04 18.5803 447.401 0 403.418 0C377.519 0 355.917 6.46477 338.931 18.9122H443.79V25.4982H330.98C306.926 47.8983 294.207 84.6374 294.207 134.124C294.207 160.476 297.811 183.208 304.773 202.117H380.428V214.955H379.685V218.582H312.226C313.467 220.843 314.745 223.056 316.107 225.168H431.492V231.754H320.775C339.284 255.893 367.14 268.596 403.415 268.596C464.364 268.596 501.593 232.8 510.513 166.962H454.746V162.009H511.122V162.006ZM450.149 30.7669H461.458V42.0763H450.149V30.7669ZM403.415 187.012C382.551 187.012 378.594 168.424 378.594 134.124C378.594 100.051 382.548 81.5867 403.415 81.5867C423.982 81.5867 427.883 100.051 427.883 134.124C427.883 168.424 423.984 187.012 403.415 187.012Z" fill="#9BCFB9"/>
<path d="M729.817 156.134V107.372H719.944V88.9311H729.817V65.003H721.482V46.5624H729.817V32.4105H682.172V29.1175H729.817V25.4952H673.391V18.9093H729.817V10.6821H639.105L629.872 23.8488H647.43V27.1417H627.561L625.022 30.764H642.161V37.3499H620.404L533.498 161.29V162.004H632.493V164.938C641.792 166.448 651.033 168.473 660.151 170.455C662.604 170.987 665.048 171.553 667.488 172.146H686.092L670.367 156.421C668.565 154.619 671.36 151.824 673.162 153.626L691.685 172.148H704.696V178.95H705.412V182.243H704.696V185.16L706.753 187.217C707.251 187.715 707.375 188.284 707.291 188.814C707.915 189.106 708.534 189.406 709.174 189.672C711.493 190.639 710.47 194.462 708.123 193.484C706.948 192.994 705.815 192.449 704.698 191.88V196.19H533.498V223.851H645.096V244.926H643.32V262.049H729.817V231.406H755.081V156.137H729.817V156.134ZM564.715 153.695H553.319V142.298H564.715V153.695ZM592.603 145.483H574.162V127.043H592.603V145.483ZM649.637 156.134H623.006L649.637 115.446V156.134ZM650.135 37.3526V18.9119H668.576V37.3526H650.135ZM679.09 55.7827H667.693V44.3863H679.09V55.7827ZM711.116 87.1766H706.348V95.4222H685.273V66.444H706.348V75.7776H711.116V87.1766Z" fill="#9BCFB9"/>
<path d="M649.617 172.149C638.785 169.823 627.76 167.797 616.785 166.959H533.502V172.149H649.617Z" fill="#9BCFB9"/>
<path d="M42.5298 146.914H17.5664V165.355H42.5298V146.914Z" fill="#9BCFB9"/>
<path d="M273.991 57.2161H255.551V75.6567H273.991V57.2161Z" fill="#9BCFB9"/>
<path d="M290.297 67.7722H278.9V79.1686H290.297V67.7722Z" fill="#9BCFB9"/>
<path d="M552.631 102.017H527.668V120.457H552.631V102.017Z" fill="#9BCFB9"/>
<path d="M759.134 37.3425H740.693V55.7832H759.134V37.3425Z" fill="#9BCFB9"/>
<path d="M775.437 47.8987H764.041V59.295H775.437V47.8987Z" fill="#9BCFB9"/>
<path d="M561.885 84.877H550.488V96.2732H561.885V84.877Z" fill="#9BCFB9"/>
<path d="M507.561 30.7668H496.252V42.0762H507.561V30.7668Z" fill="#9BCFB9"/>
</g>
<g opacity="0.4722">
<path d="M249.347 127.246H233.632V108.805H249.347V84.877H235.168V66.4363H249.347V52.2844H195.858V48.9915H249.347V45.3692H187.078V38.7832H249.347V12.4395H157.401L135.465 43.7227H161.116V47.0157H133.157L130.618 50.6379H155.847V57.2239H125.997L53.0273 161.292V181.877H146.179V186.83H53.0273V198.822H219.099V202.115H53.0273V226.483H163.658V248.875H162.847V267.974H249.344V231.404H274.608V214.952H256.583V202.115H274.608V156.134H249.344V127.246H249.347ZM78.4017 173.566H67.0054V162.17H78.4017V173.566ZM106.292 165.355H87.8512V146.914H106.292V165.355ZM163.821 38.7832H182.262V57.2239H163.821V38.7832ZM169.167 156.134H142.536L169.167 115.446V156.134ZM194.615 80.9333H163.002V59.8583H194.615V80.9333ZM224.802 107.048H222.937V112.546H198.569V93.4466H222.937V95.6516H224.802V107.048Z" fill="#9BCFB9"/>
<path d="M509.951 162.006C510.933 153.21 511.455 143.929 511.455 134.124C511.455 107.899 507.867 85.2722 500.936 66.4364H419.786V53.5991H495.43C477.869 18.5803 446.23 0 402.247 0C376.348 0 354.746 6.46477 337.76 18.9122H442.618V25.4982H329.806C305.752 47.8983 293.033 84.6374 293.033 134.124C293.033 160.476 296.637 183.208 303.6 202.117H379.254V209.362H379.683V218.582H311.055C312.296 220.843 313.573 223.056 314.935 225.168H430.321V231.754H319.604C338.113 255.893 365.969 268.596 402.244 268.596C463.196 268.596 500.422 232.8 509.342 166.962H453.575V162.009H509.951V162.006ZM448.975 30.7669H460.285V42.0763H448.975V30.7669ZM402.244 187.012C381.38 187.012 377.423 168.424 377.423 134.124C377.423 100.051 381.377 81.5867 402.244 81.5867C422.811 81.5867 426.712 100.051 426.712 134.124C426.71 168.424 422.811 187.012 402.244 187.012Z" fill="#9BCFB9"/>
<path d="M649.612 172.149C638.779 169.823 627.755 167.797 616.78 166.959H532.324V172.149H649.612Z" fill="#9BCFB9"/>
<path d="M728.643 156.134V107.372H718.77V88.9311H728.643V65.003H720.308V46.5624H728.643V32.4105H680.998V29.1175H728.643V25.4952H672.218V18.9093H728.643V10.6821H637.931L628.698 23.8488H646.256V27.1417H626.387L623.848 30.764H640.987V37.3499H619.23L532.324 161.29V162.004H631.319V164.754C641.013 166.279 650.647 168.392 660.15 170.455C662.602 170.987 665.047 171.553 667.486 172.146H686.09L670.366 156.421C668.564 154.619 671.359 151.824 673.161 153.626L691.683 172.148H704.694V185.16L706.752 187.217C707.25 187.715 707.373 188.284 707.289 188.814C707.913 189.106 708.533 189.406 709.173 189.672C711.491 190.639 710.469 194.462 708.122 193.484C706.947 192.994 705.814 192.449 704.697 191.88V196.19H532.327V223.851H645.094V244.926H642.146V262.049H728.643V231.406H753.907V156.137H728.643V156.134ZM563.539 153.695H552.143V142.298H563.539V153.695ZM591.429 145.483H572.989V127.043H591.429V145.483ZM648.461 156.134H621.83L648.461 115.446V156.134ZM648.959 37.3526V18.9119H667.399V37.3526H648.959ZM677.916 55.7827H666.519V44.3863H677.916V55.7827ZM709.939 87.1766H706.341V95.4222H685.266V66.444H706.341V75.7776H709.939V87.1766Z" fill="#9BCFB9"/>
<path d="M41.356 146.914H16.3926V165.355H41.356V146.914Z" fill="#9BCFB9"/>
<path d="M272.818 57.2161H254.377V75.6567H272.818V57.2161Z" fill="#9BCFB9"/>
<path d="M289.123 67.7722H277.727V79.1686H289.123V67.7722Z" fill="#9BCFB9"/>
<path d="M551.458 102.017H526.494V120.457H551.458V102.017Z" fill="#9BCFB9"/>
<path d="M757.954 37.3425H739.514V55.7832H757.954V37.3425Z" fill="#9BCFB9"/>
<path d="M774.26 47.8987H762.863V59.295H774.26V47.8987Z" fill="#9BCFB9"/>
<path d="M560.711 84.877H549.314V96.2732H560.711V84.877Z" fill="#9BCFB9"/>
<path d="M506.382 30.7668H495.072V42.0762H506.382V30.7668Z" fill="#9BCFB9"/>
</g>
<g opacity="0.5778">
<path d="M248.173 127.246H232.457V108.805H248.173V84.877H233.995V66.4363H248.173V52.2844H194.685V48.9915H248.173V45.3692H185.904V38.7832H248.173V12.4395H156.228L134.292 43.7227H159.943V47.0157H131.984L129.444 50.6379H154.677V57.2239H124.829L51.8594 161.292V181.877H145.011V186.83H51.8594V198.822H217.931V202.115H51.8594V226.483H163.662V248.875H161.679V267.974H248.176V231.404H273.44V214.952H255.415V202.115H273.44V156.134H248.176L248.173 127.246ZM77.2258 173.566H65.8295V162.17H77.2258V173.566ZM105.116 165.355H86.6753V146.914H105.116V165.355ZM162.646 38.7832H181.086V57.2239H162.646V38.7832ZM167.991 156.134H141.36L167.991 115.446V156.134ZM194.611 80.9333H162.999V59.8583H194.611V80.9333ZM223.626 107.048H222.931V112.546H198.563V93.4466H222.931V95.6516H223.626V107.048Z" fill="#9BCFB9"/>
<path d="M508.779 162.006C509.761 153.21 510.283 143.929 510.283 134.124C510.283 107.899 506.695 85.2722 499.764 66.4364H418.612V53.5991H494.255C476.695 18.5803 445.056 0 401.072 0C375.174 0 353.572 6.46477 336.585 18.9122H441.444V25.4982H328.635C304.58 47.8983 291.861 84.6374 291.861 134.124C291.861 160.476 295.465 183.208 302.428 202.117H378.082V209.362H379.681V218.582H309.88C311.121 220.843 312.399 223.056 313.761 225.168H429.147V231.754H318.429C336.938 255.893 364.794 268.596 401.069 268.596C462.018 268.596 499.247 232.8 508.167 166.962H452.4V162.009H508.779V162.006ZM447.806 30.7669H459.115V42.0763H447.806V30.7669ZM401.072 187.012C380.208 187.012 376.251 168.424 376.251 134.124C376.251 100.051 380.205 81.5867 401.072 81.5867C421.639 81.5867 425.54 100.051 425.54 134.124C425.54 168.424 421.641 187.012 401.072 187.012Z" fill="#9BCFB9"/>
<path d="M649.614 172.149C638.781 169.823 627.756 167.797 616.781 166.959H531.156V172.149H649.614Z" fill="#9BCFB9"/>
<path d="M727.473 156.134V107.372H717.599V88.9311H727.473V65.003H719.138V46.5624H727.473V32.4105H679.827V29.1175H727.473V25.4952H671.047V18.9093H727.473V10.6821H636.763L627.53 23.8488H645.088V27.1417H625.219L622.68 30.764H639.819V37.3499H618.062L531.156 161.29V162.004H630.151V164.569C640.241 166.105 650.267 168.308 660.151 170.455C662.604 170.987 665.049 171.553 667.488 172.146H686.092L670.367 156.421C668.565 154.619 671.361 151.824 673.162 153.626L691.685 172.148H704.696V185.16L706.753 187.217C707.251 187.715 707.375 188.284 707.291 188.814C707.915 189.106 708.534 189.406 709.174 189.672C711.493 190.639 710.471 194.462 708.123 193.484C706.948 192.994 705.816 192.449 704.699 191.88V196.19H531.156V223.851H645.096V244.926H640.978V262.049H727.475V231.406H752.739V156.137H727.473V156.134ZM562.371 153.695H550.975V142.298H562.371V153.695ZM590.261 145.483H571.821V127.043H590.261V145.483ZM647.293 156.134H620.662L647.293 115.446V156.134ZM647.791 37.3526V18.9119H666.231V37.3526H647.791ZM676.745 55.7827H665.349V44.3863H676.745V55.7827ZM708.771 87.1766H706.345V95.4222H685.27V66.444H706.345V75.7776H708.771V87.1766Z" fill="#9BCFB9"/>
<path d="M40.1821 146.914H15.2188V165.355H40.1821V146.914Z" fill="#9BCFB9"/>
<path d="M271.644 57.2161H253.203V75.6567H271.644V57.2161Z" fill="#9BCFB9"/>
<path d="M287.949 67.7722H276.553V79.1686H287.949V67.7722Z" fill="#9BCFB9"/>
<path d="M550.286 102.017H525.322V120.457H550.286V102.017Z" fill="#9BCFB9"/>
<path d="M756.786 37.3425H738.346V55.7832H756.786V37.3425Z" fill="#9BCFB9"/>
<path d="M773.092 47.8987H761.695V59.295H773.092V47.8987Z" fill="#9BCFB9"/>
<path d="M559.537 84.877H548.141V96.2732H559.537V84.877Z" fill="#9BCFB9"/>
<path d="M505.214 30.7668H493.904V42.0762H505.214V30.7668Z" fill="#9BCFB9"/>
</g>
<g opacity="0.6833">
<path d="M247.002 127.246H231.288V108.805H247.002V84.877H232.824V66.4363H247.002V52.2844H193.514V48.9915H247.002V45.3692H184.733V38.7832H247.002V12.4395H155.057L133.121 43.7227H158.771V47.0157H130.813L128.273 50.6379H153.505V57.2239H123.655L50.6855 161.292V181.877H143.837V186.83H50.6855V198.822H216.757V202.115H50.6855V226.483H163.658V248.875H160.505V267.974H247.002V231.404H272.266V214.952H254.241V202.115H272.266V156.134H247.002V127.246ZM76.0572 173.566H64.6609V162.17H76.0572V173.566ZM103.947 165.355H85.5068V146.914H103.947V165.355ZM161.477 38.7832H179.918V57.2239H161.477V38.7832ZM166.822 156.134H140.191L166.822 115.446V156.134ZM194.612 80.9333H163V59.8583H194.612V80.9333ZM222.932 112.546H198.564V93.4466H222.932V112.546Z" fill="#9BCFB9"/>
<path d="M507.609 162.006C508.591 153.21 509.113 143.929 509.113 134.124C509.113 107.899 505.525 85.2722 498.591 66.4364H417.442V53.5991H493.085C475.525 18.5803 443.886 0 399.902 0C374.004 0 352.399 6.46477 335.415 18.9122H440.274V25.4982H327.465C303.41 47.8983 290.691 84.6374 290.691 134.124C290.691 160.476 294.295 183.208 301.258 202.117H376.912V209.362H379.681V218.582H308.711C309.949 220.843 311.229 223.056 312.591 225.168H427.977V231.754H317.259C335.768 255.893 363.624 268.596 399.9 268.596C460.851 268.596 498.078 232.8 506.998 166.962H451.23V162.009H507.609V162.006ZM446.633 30.7669H457.943V42.0763H446.633V30.7669ZM399.902 187.012C379.038 187.012 375.081 168.424 375.081 134.124C375.081 100.051 379.035 81.5867 399.902 81.5867C420.469 81.5867 424.37 100.051 424.37 134.124C424.37 168.424 420.469 187.012 399.902 187.012Z" fill="#9BCFB9"/>
<path d="M649.614 172.149C638.782 169.823 627.757 167.797 616.782 166.959H529.984V172.149H649.614Z" fill="#9BCFB9"/>
<path d="M726.304 156.134V107.372H716.43V88.9311H726.304V65.003H717.968V46.5624H726.304V32.4105H678.658V29.1175H726.304V25.4952H669.878V18.9093H726.304V10.6821H635.591L626.358 23.8488H643.916V27.1417H624.047L621.508 30.764H638.647V37.3499H616.89L529.984 161.29V162.004H628.979V164.385C639.467 165.923 649.886 168.226 660.152 170.455C662.604 170.987 665.049 171.553 667.488 172.146H686.092L670.368 156.421C668.566 154.619 671.361 151.824 673.163 153.626L691.685 172.148H704.696V185.16L706.754 187.217C707.252 187.715 707.376 188.284 707.291 188.814C707.916 189.106 708.535 189.406 709.175 189.672C711.493 190.639 710.471 194.462 708.124 193.484C706.949 192.994 705.816 192.449 704.699 191.88V196.19H529.987V223.851H645.096V244.926H639.806V262.049H726.304V231.406H751.567V156.137H726.304V156.134ZM561.199 153.695H549.803V142.298H561.199V153.695ZM589.089 145.483H570.649V127.043H589.089V145.483ZM646.121 156.134H619.49L646.121 115.446V156.134ZM646.619 37.3526V18.9119H665.059V37.3526H646.619ZM675.576 55.7827H664.18V44.3863H675.576V55.7827ZM707.599 87.1766H706.343V95.4222H685.268V66.444H706.343V75.7776H707.599V87.1766Z" fill="#9BCFB9"/>
<path d="M39.0142 146.914H14.0508V165.355H39.0142V146.914Z" fill="#9BCFB9"/>
<path d="M270.476 57.2161H252.035V75.6567H270.476V57.2161Z" fill="#9BCFB9"/>
<path d="M286.781 67.7722H275.385V79.1686H286.781V67.7722Z" fill="#9BCFB9"/>
<path d="M549.118 102.017H524.154V120.457H549.118V102.017Z" fill="#9BCFB9"/>
<path d="M755.614 37.3425H737.174V55.7832H755.614V37.3425Z" fill="#9BCFB9"/>
<path d="M771.924 47.8987H760.527V59.295H771.924V47.8987Z" fill="#9BCFB9"/>
<path d="M558.369 84.877H546.973V96.2732H558.369V84.877Z" fill="#9BCFB9"/>
<path d="M504.042 30.7668H492.732V42.0762H504.042V30.7668Z" fill="#9BCFB9"/>
</g>
<g opacity="0.7889">
<path d="M245.834 127.246H230.12V108.805H245.834V84.877H231.656V66.4363H245.834V52.2844H192.346V48.9915H245.834V45.3692H183.565V38.7832H245.834V12.4395H153.889L131.953 43.7227H157.603V47.0157H129.645L127.105 50.6379H152.337V57.2239H122.487L49.5176 161.292V181.877H142.669V186.83H49.5176V198.822H215.589V202.115H49.5176V226.483H163.66V248.875H159.337V267.974H245.834V231.404H271.098V214.952H253.073V202.115H271.098V156.134H245.834V127.246ZM74.8867 173.566H63.4903V162.17H74.8867V173.566ZM102.777 165.355H84.3362V146.914H102.777V165.355ZM160.306 38.7832H178.747V57.2239H160.306V38.7832ZM165.652 156.134H139.021L165.652 115.446V156.134ZM194.614 80.9333H163.001V59.8583H194.614V80.9333ZM222.933 112.546H198.565V93.4466H222.933V112.546Z" fill="#9BCFB9"/>
<path d="M506.437 162.006C507.42 153.21 507.941 143.929 507.941 134.124C507.941 107.899 504.353 85.2722 497.419 66.4364H416.27V53.5991H491.914C474.353 18.5803 442.714 0 398.73 0C372.832 0 351.23 6.46477 334.243 18.9122H439.102V25.4982H326.293C302.238 47.8983 289.52 84.6374 289.52 134.124C289.52 160.476 293.123 183.208 300.086 202.117H375.74V209.362H379.681V218.582H307.539C308.779 220.843 310.057 223.056 311.419 225.168H426.805V231.754H316.087C334.596 255.893 362.452 268.596 398.728 268.596C459.677 268.596 496.906 232.8 505.826 166.962H450.059V162.009H506.437V162.006ZM445.464 30.7669H456.774V42.0763H445.464V30.7669ZM398.733 187.012C377.869 187.012 373.912 168.424 373.912 134.124C373.912 100.051 377.866 81.5867 398.733 81.5867C419.3 81.5867 423.201 100.051 423.201 134.124C423.198 168.424 419.3 187.012 398.733 187.012Z" fill="#9BCFB9"/>
<path d="M649.616 172.149C638.783 169.823 627.758 167.797 616.784 166.959H528.816V172.149H649.616Z" fill="#9BCFB9"/>
<path d="M725.13 156.134V107.372H715.256V88.9311H725.13V65.003H716.795V46.5624H725.13V32.4105H677.484V29.1175H725.13V25.4952H668.704V18.9093H725.13V10.6821H634.418L625.184 23.8488H642.742V27.1417H622.874L620.334 30.764H637.473V37.3499H615.716L528.811 161.29V162.004H627.805V164.214C638.688 165.75 649.499 168.142 660.148 170.455C662.6 170.987 665.045 171.553 667.484 172.146H686.088L670.364 156.421C668.562 154.619 671.357 151.824 673.159 153.626L691.681 172.148H704.692V185.16L706.75 187.217C707.248 187.715 707.371 188.284 707.287 188.814C707.911 189.106 708.531 189.406 709.171 189.672C711.489 190.639 710.467 194.462 708.12 193.484C706.945 192.994 705.812 192.449 704.695 191.88V196.19H528.813V223.851H645.092V244.926H638.633V262.049H725.13V231.406H750.393V156.137H725.13V156.134ZM560.028 153.695H548.632V142.298H560.028V153.695ZM587.918 145.483H569.477V127.043H587.918V145.483ZM644.95 156.134H618.319L644.95 115.446V156.134ZM645.448 37.3526V18.9119H663.888V37.3526H645.448ZM674.405 55.7827H663.008V44.3863H674.405V55.7827ZM706.428 87.1766H706.344V95.4222H685.269V66.444H706.344V75.7776H706.428V87.1766Z" fill="#9BCFB9"/>
<path d="M37.8423 146.914H12.8789V165.355H37.8423V146.914Z" fill="#9BCFB9"/>
<path d="M269.304 57.2161H250.863V75.6567H269.304V57.2161Z" fill="#9BCFB9"/>
<path d="M285.609 67.7722H274.213V79.1686H285.609V67.7722Z" fill="#9BCFB9"/>
<path d="M547.944 102.017H522.98V120.457H547.944V102.017Z" fill="#9BCFB9"/>
<path d="M754.447 37.3425H736.006V55.7832H754.447V37.3425Z" fill="#9BCFB9"/>
<path d="M770.752 47.8987H759.355V59.295H770.752V47.8987Z" fill="#9BCFB9"/>
<path d="M557.197 84.877H545.801V96.2732H557.197V84.877Z" fill="#9BCFB9"/>
<path d="M502.874 30.7668H491.564V42.0762H502.874V30.7668Z" fill="#9BCFB9"/>
</g>
<g opacity="0.8944">
<path d="M244.664 127.246H228.947V108.805H244.664V84.877H230.485V66.4363H244.664V52.2844H191.175V48.9915H244.664V45.3692H182.395V38.7832H244.664V12.4395H152.718L130.782 43.7227H156.433V47.0157H128.474L125.935 50.6379H151.167V57.2239H121.319L48.3496 161.292V181.877H141.501V186.83H48.3496V198.822H214.421V202.115H48.3496V226.483H163.664V248.875H158.169V267.974H244.666V231.404H269.93V214.952H251.905V202.115H269.93V156.134H244.666V127.246H244.664ZM73.7161 173.566H62.3197V162.17H73.7161V173.566ZM101.606 165.355H83.1656V146.914H101.606V165.355ZM159.136 38.7832H177.576V57.2239H159.136V38.7832ZM164.481 156.134H137.85L164.481 115.446V156.134ZM194.613 80.9333H163V59.8583H194.613V80.9333ZM222.933 112.546H198.565V93.4466H222.933V112.546Z" fill="#9BCFB9"/>
<path d="M505.266 162.006C506.249 153.21 506.771 143.929 506.771 134.124C506.771 107.899 503.183 85.2722 496.251 66.4364H415.102V53.5991H490.746C473.185 18.5803 441.546 0 397.562 0C371.664 0 350.062 6.46477 333.075 18.9122H437.932V25.4982H325.125C301.07 47.8983 288.352 84.6374 288.352 134.124C288.352 160.476 291.955 183.208 298.918 202.117H374.572V209.362H379.683V218.582H306.371C307.611 220.843 308.889 223.056 310.251 225.168H425.637V231.754H314.919C333.428 255.893 361.284 268.596 397.56 268.596C458.509 268.596 495.738 232.8 504.658 166.962H448.891V162.009H505.266V162.006ZM444.291 30.7669H455.6V42.0763H444.291V30.7669ZM397.56 187.012C376.695 187.012 372.739 168.424 372.739 134.124C372.739 100.051 376.693 81.5867 397.56 81.5867C418.126 81.5867 422.028 100.051 422.028 134.124C422.028 168.424 418.126 187.012 397.56 187.012Z" fill="#9BCFB9"/>
<path d="M649.618 172.149C638.785 169.823 627.76 167.797 616.785 166.959H527.648V172.149H649.618Z" fill="#9BCFB9"/>
<path d="M723.962 156.134V107.372H714.088V88.9311H723.962V65.003H715.627V46.5624H723.962V32.4105H676.316V29.1175H723.962V25.4952H667.536V18.9093H723.962V10.6821H633.25L624.016 23.8488H641.574V27.1417H621.706L619.166 30.764H636.305V37.3499H614.548L527.643 161.29V162.004H626.637V164.066C637.915 165.592 649.119 168.06 660.152 170.455C662.604 170.987 665.049 171.553 667.489 172.146H686.093L670.368 156.421C668.566 154.619 671.361 151.824 673.163 153.626L691.685 172.148H704.697V185.16L706.754 187.217C707.252 187.715 707.376 188.284 707.291 188.814C707.916 189.106 708.535 189.406 709.175 189.672C711.493 190.639 710.471 194.462 708.124 193.484C706.949 192.994 705.816 192.449 704.699 191.88V196.19H527.645V223.851H645.096V244.926H637.467V262.049H723.964V231.406H749.228V156.137H723.962V156.134ZM558.857 153.695H547.461V142.298H558.857V153.695ZM586.748 145.483H568.307V127.043H586.748V145.483ZM643.782 156.134H617.151L643.782 115.446V156.134ZM644.277 37.3526V18.9119H662.718V37.3526H644.277ZM673.234 55.7827H661.838V44.3863H673.234V55.7827ZM706.343 95.4222H685.268V66.444H706.343V95.4222Z" fill="#9BCFB9"/>
<path d="M36.6743 146.914H11.7109V165.355H36.6743V146.914Z" fill="#9BCFB9"/>
<path d="M268.136 57.2161H249.695V75.6567H268.136V57.2161Z" fill="#9BCFB9"/>
<path d="M284.441 67.7722H273.045V79.1686H284.441V67.7722Z" fill="#9BCFB9"/>
<path d="M546.776 102.017H521.812V120.457H546.776V102.017Z" fill="#9BCFB9"/>
<path d="M753.273 37.3425H734.832V55.7832H753.273V37.3425Z" fill="#9BCFB9"/>
<path d="M769.584 47.8987H758.188V59.295H769.584V47.8987Z" fill="#9BCFB9"/>
<path d="M556.029 84.877H544.633V96.2732H556.029V84.877Z" fill="#9BCFB9"/>
<path d="M501.7 30.7668H490.391V42.0762H501.7V30.7668Z" fill="#9BCFB9"/>
</g>
<path d="M243.492 127.246H227.775V108.805H243.492V84.877H229.313V66.4363H243.492V52.2844H190.003V48.9915H243.492V45.3692H181.223V38.7832H243.492V12.4395H151.547L129.613 43.7227H155.264V47.0157H127.305L124.765 50.6379H149.998V57.2239H120.147L47.1777 161.292V181.877H140.329V186.83H47.1777V198.822H213.249V202.115H47.1777V226.483H163.662V248.875H156.997V267.974H243.494V231.404H268.758V214.952H250.734V202.115H268.758V156.134H243.494L243.492 127.246ZM72.5468 173.566H61.1505V162.17H72.5468V173.566ZM100.434 165.355H81.9937V146.914H100.434V165.355ZM157.964 38.7832H176.405V57.2239H157.964V38.7832ZM163.312 156.134H136.678L163.309 115.446V156.134H163.312ZM194.613 80.9333H163.001V59.8583H194.613V80.9333ZM222.933 112.546H198.565V93.4466H222.933V112.546Z" fill="#9BCFB9"/>
<path d="M504.095 162.006C505.078 153.21 505.599 143.929 505.599 134.124C505.599 107.899 502.011 85.2722 495.078 66.4364H413.928V53.5991H489.572C472.011 18.5803 440.372 0 396.389 0C370.49 0 348.888 6.46477 331.902 18.9122H436.76V25.4982H323.951C299.897 47.8983 287.178 84.6374 287.178 134.124C287.178 160.476 290.782 183.208 297.744 202.117H373.398V209.362H379.681V218.582H305.197C306.438 220.843 307.715 223.056 309.077 225.168H424.463V231.754H313.745C332.255 255.893 360.11 268.596 396.386 268.596C457.337 268.596 494.564 232.8 503.484 166.962H447.722V162.009H504.095V162.006ZM443.122 30.7669H454.432V42.0763H443.122V30.7669ZM396.391 187.012C375.527 187.012 371.57 168.424 371.57 134.124C371.57 100.051 375.524 81.5867 396.391 81.5867C416.958 81.5867 420.859 100.051 420.859 134.124C420.857 168.424 416.958 187.012 396.391 187.012Z" fill="#9BCFB9"/>
<path d="M649.616 172.149C638.784 169.823 627.759 167.797 616.784 166.959H526.475V172.149H649.616Z" fill="#9BCFB9"/>
<path d="M722.794 156.134V107.372H712.92V88.9311H722.794V65.003H714.459V46.5624H722.794V32.4105H675.148V29.1175H722.794V25.4952H666.368V18.9093H722.794V10.6821H632.082L622.848 23.8488H640.406V27.1417H620.538L617.998 30.764H635.138V37.3499H613.38L526.475 161.29V162.004H625.469V163.916C637.142 165.423 648.741 167.976 660.154 170.455C662.606 170.987 665.051 171.553 667.49 172.146H686.094L670.37 156.421C668.568 154.619 671.363 151.824 673.165 153.626L691.687 172.148H704.698V185.16L706.756 187.217C707.254 187.715 707.377 188.284 707.293 188.814C707.917 189.106 708.537 189.406 709.177 189.672C711.495 190.639 710.473 194.462 708.126 193.484C706.951 192.994 705.818 192.449 704.701 191.88V196.19H526.477V223.851H645.098V244.926H636.297V262.049H722.794V231.406H748.057V156.137H722.794V156.134ZM557.689 153.695H546.293V142.298H557.689V153.695ZM585.58 145.483H567.139V127.043H585.58V145.483ZM642.611 156.134H615.98L642.611 115.446V156.134ZM643.109 37.3526V18.9119H661.55V37.3526H643.109ZM672.066 55.7827H660.67V44.3863H672.066V55.7827ZM706.345 95.4222H685.27V66.444H706.345V95.4222Z" fill="#9BCFB9"/>
<path d="M35.5005 146.914H10.5371V165.355H35.5005V146.914Z" fill="#9BCFB9"/>
<path d="M266.962 57.2161H248.521V75.6567H266.962V57.2161Z" fill="#9BCFB9"/>
<path d="M283.267 67.7722H271.871V79.1686H283.267V67.7722Z" fill="#9BCFB9"/>
<path d="M545.604 102.017H520.641V120.457H545.604V102.017Z" fill="#9BCFB9"/>
<path d="M752.105 37.3425H733.664V55.7832H752.105V37.3425Z" fill="#9BCFB9"/>
<path d="M768.41 47.8987H757.014V59.295H768.41V47.8987Z" fill="#9BCFB9"/>
<path d="M554.861 84.877H543.465V96.2732H554.861V84.877Z" fill="#9BCFB9"/>
<path d="M500.532 30.7668H489.223V42.0762H500.532V30.7668Z" fill="#9BCFB9"/>
<path d="M248.096 202.115H266.121V156.134H240.857V127.246H225.14V108.805H240.857V84.877H226.679V66.4363H240.857V52.2844H187.368V48.9914H240.857V45.3692H178.588V38.7832H240.857V9.47314H150.993L126.978 43.7227H152.629V47.0157H124.67L122.131 50.6379H147.363V57.2239H117.513L44.543 161.292V181.877H137.695V186.83H44.543V198.822H210.614V202.115H44.543V231.404H154.362V269.997H240.86V231.404H266.123V214.952H248.099L248.096 202.115ZM155.329 38.7832H173.77V57.2239H155.329V38.7832ZM69.9121 173.566H58.5157V162.17H69.9121V173.566ZM97.7996 165.355H79.3589V146.914H97.7996V165.355ZM160.677 156.134H134.043L160.674 115.446V156.134H160.677ZM184.286 75.6566H172.89V64.2603H184.286V75.6566ZM216.312 107.048H204.916V95.6516H216.312V107.048Z" fill="#262626"/>
<path d="M445.085 162.006H501.46C502.443 153.21 502.965 143.929 502.965 134.124C502.965 107.899 499.377 85.2722 492.443 66.4364H411.294V53.5991H486.937C469.376 18.5803 437.737 0 393.754 0C367.855 0 346.253 6.46477 329.267 18.9122H434.126V25.4982H321.316C297.262 47.8983 284.543 84.6374 284.543 134.124C284.543 160.476 288.147 183.208 295.109 202.117H370.764V214.955H300.621C302.415 218.532 304.359 221.936 306.443 225.168H421.828V231.754H311.111C329.62 255.893 357.476 268.596 393.751 268.596C454.703 268.596 491.929 232.8 500.849 166.962H445.085V162.006ZM440.485 30.7669H451.794V42.0763H440.485V30.7669ZM393.754 187.012C372.889 187.012 368.933 168.424 368.933 134.124C368.933 100.051 372.887 81.5867 393.754 81.5867C414.32 81.5867 418.222 100.051 418.222 134.124C418.219 168.424 414.32 187.012 393.754 187.012Z" fill="#262626"/>
<path d="M720.156 107.375H710.283V88.9339H720.156V65.0059H711.821V46.5652H720.156V32.4133H672.511V29.1203H720.156V25.4981H663.731V18.9121H720.156V9.47314H630.295L620.213 23.8516H637.772V27.1445H617.903L615.363 30.7668H632.503V37.3528H610.745L523.84 161.292V162.006H622.835V166.959H523.84V178.951H695.757V182.244H523.84V231.406H633.662V270H720.159V231.406H745.423V156.137H720.159V107.375H720.156ZM555.052 153.695H543.656V142.299H555.052V153.695ZM582.942 145.483H564.501V127.043H582.942V145.483ZM639.974 156.134H613.343L639.974 115.446V156.134ZM640.472 18.9121H658.912V37.3528H640.472V18.9121ZM669.429 55.7829H658.032V44.3865H669.429V55.7829ZM701.452 87.1768H690.056V75.7805H701.452V87.1768Z" fill="#262626"/>
<path d="M32.8657 146.914H7.90234V165.355H32.8657V146.914Z" fill="#262626"/>
<path d="M264.327 57.2161H245.887V75.6567H264.327V57.2161Z" fill="#262626"/>
<path d="M280.633 67.7722H269.236V79.1686H280.633V67.7722Z" fill="#262626"/>
<path d="M542.969 102.017H518.006V120.457H542.969V102.017Z" fill="#262626"/>
<path d="M749.47 37.3425H731.029V55.7832H749.47V37.3425Z" fill="#262626"/>
<path d="M765.775 47.8987H754.379V59.295H765.775V47.8987Z" fill="#262626"/>
<path d="M552.226 84.877H540.83V96.2732H552.226V84.877Z" fill="#262626"/>
<path d="M497.897 30.7668H486.588V42.0762H497.897V30.7668Z" fill="#262626"/>
</svg>
