<svg width="460" height="305" viewBox="0 0 460 305" fill="none" xmlns="http://www.w3.org/2000/svg">
<path d="M273.304 102.452C295.857 102.452 314.141 84.1684 314.141 61.6148C314.141 39.0612 295.857 20.7778 273.304 20.7778C250.75 20.7778 232.467 39.0612 232.467 61.6148C232.467 84.1684 250.75 102.452 273.304 102.452Z" fill="#E1EFEC"/>
<path d="M180.125 19.96C185.636 19.96 190.105 15.4918 190.105 9.98001C190.105 4.4682 185.636 0 180.125 0C174.613 0 170.145 4.4682 170.145 9.98001C170.145 15.4918 174.613 19.96 180.125 19.96Z" fill="#E1EFEC"/>
<path d="M434.504 302.388H10.1071C-0.837854 295.918 0.131098 275.444 6.15984 264.25C12.1886 253.056 23.2779 245.683 33.7508 238.474C44.2238 231.265 54.9999 223.15 59.7723 211.365C65.9578 196.092 60.5299 178.791 54.4653 163.469C44.0871 137.249 31.6538 110.867 31.1952 82.6706C30.7366 54.4746 46.4846 23.5213 73.9885 17.2957C94.343 12.6885 115.058 22.4368 132.804 33.4182C161.719 51.3105 188.104 73.2838 210.932 98.4839C223.284 112.119 236.137 127.625 254.23 130.961C278.493 135.434 301.513 116.062 326.167 116.989C344.164 117.666 359.934 129.05 372.984 141.463C415.339 181.752 430.963 244.039 434.504 302.388Z" fill="#E1EFEC"/>
<path d="M320.079 83.2475C320.079 83.2475 335.05 78.1413 342.852 68.6523L344.644 88.895C344.644 88.895 334.417 94.8108 324.507 95.9647C314.596 97.1186 320.079 83.2475 320.079 83.2475Z" fill="#FFAAA5"/>
<path d="M446.255 300.113H0V304.664H446.255V300.113Z" fill="#262626"/>
<path d="M448.453 243.637L457.377 251.288C460.711 254.146 460.864 259.252 457.708 262.304L436.403 282.909C434.738 284.518 431.976 283.947 431.086 281.809C430.683 280.84 430.767 279.736 431.313 278.839L438.446 267.123L432.901 261.079L448.453 243.637Z" fill="#262626"/>
<path d="M376.537 280.936L377.633 292.64C378.042 297.012 374.603 300.788 370.212 300.788H340.574C338.258 300.788 336.669 298.457 337.516 296.302C337.9 295.324 338.728 294.589 339.744 294.324L353.016 290.862L353.232 282.662L376.537 280.936Z" fill="#262626"/>
<path d="M386.965 141.019L380.386 212.565C380.386 212.565 385.657 230.066 376.589 281.51C371.319 283.68 353.23 282.662 353.23 282.662L354.891 135.391L386.965 141.019Z" fill="#262626"/>
<path d="M372.935 199.702C373.428 204.552 375.044 208.348 378.4 212.389L432.9 261.079C432.9 261.079 445.959 248.954 448.452 243.637C417.497 198.226 403.156 198.226 403.156 198.226C403.156 198.226 407.587 152.259 401.064 135.391C393.589 116.06 363.672 133.978 363.672 133.978L372.935 199.702Z" fill="#262626"/>
<path d="M403.157 134.82C403.157 134.82 365.337 145.445 352.808 142.624C352.808 142.624 350.711 135.108 348.259 124.193C347.859 122.415 347.451 120.549 347.04 118.608C343.159 100.272 339.116 75.4703 341.278 59.2312C342.035 53.5492 346.866 49.2956 352.595 49.2217L369.825 50.9638C376.252 51.6145 381.887 55.5307 384.75 61.3224C392.382 76.7596 392.453 97.3498 392.453 97.3498C392.453 97.3498 396.315 122.406 403.157 134.82Z" fill="url(#paint0_linear_2708_919)"/>
<path d="M345.754 36.2487C342.94 36.4099 340.078 35.3938 337.995 33.4947C335.913 31.5955 334.406 28.5845 334.308 25.7679C331.069 24.1949 328.742 20.8796 328.364 17.2983C327.986 13.717 329.569 9.98897 332.409 7.77427C335.249 5.55957 338.758 5.07668 342.139 6.31557C344.534 2.80102 348.754 0.608488 353.007 0.669707C357.259 0.730925 361.657 2.83374 363.949 6.41558C367.342 6.33668 370.695 8.37695 372.184 11.4268C373.673 14.4767 373.541 18.3781 371.392 21.0052C373.548 24.0677 373.14 28.3731 371.37 31.6744C369.601 34.9758 366.697 37.4966 363.857 39.939C359.708 40.1013 355.733 39.9387 351.598 39.5532C350.259 39.4284 348.901 39.2696 347.658 38.7534C346.416 38.2373 346.228 37.5079 345.754 36.2487Z" fill="#262626"/>
<path d="M349.273 53.8217L349.298 49.7018L349.834 49.1247L349.2 47.6515C337.485 47.5309 338.511 24.4443 338.511 24.4443L339.028 22.323C352.996 20.3948 351.481 12.4572 351.481 12.4572C360.45 12.339 361.819 27.478 361.819 27.478C363.612 24.7295 367.236 25.5589 368.042 29.8051C368.848 34.0517 364.762 33.9488 364.762 33.9488L366.614 47.1863L367.207 50.6243C367.207 50.6243 367.91 52.4516 363.203 54.7281C357.224 57.6202 349.273 53.8217 349.273 53.8217Z" fill="#FFAAA5"/>
<path d="M349.199 47.6509L349.297 49.7013C349.297 49.7013 358.681 49.9841 361.446 42.3223C361.446 42.3223 356.547 47.5934 349.199 47.6509Z" fill="#262626"/>
<path d="M349.383 34.8657C348.717 35.5209 347.653 35.4272 347.146 34.629C346.581 33.7397 347.195 32.5573 347.427 31.6498C347.979 29.4823 348.198 27.2326 348.084 24.9994C348.061 24.5474 347.293 24.5656 347.316 25.0184C347.382 26.3327 347.34 27.6537 347.168 28.9591C346.996 30.261 346.665 31.5057 346.318 32.7686C346.022 33.8471 346.131 34.9744 347.13 35.6414C348.006 36.2267 349.195 36.0753 349.938 35.3435C350.289 34.9989 349.703 34.5501 349.383 34.8657Z" fill="#262626"/>
<path d="M341.992 24.4644C343.363 23.7017 344.271 22.7178 344.021 22.267C343.77 21.8162 342.455 22.069 341.084 22.8318C339.713 23.5945 338.805 24.5784 339.056 25.0292C339.307 25.4801 340.621 25.2272 341.992 24.4644Z" fill="#262626"/>
<path d="M357.568 22.3765C357.655 21.8681 356.473 21.2397 354.927 20.9728C353.382 20.706 352.057 20.9017 351.969 21.4101C351.882 21.9184 353.064 22.5469 354.61 22.8138C356.156 23.0806 357.48 22.8848 357.568 22.3765Z" fill="#262626"/>
<path d="M352.994 29.3763C353.721 29.3763 354.311 28.7863 354.311 28.0585C354.311 27.3307 353.721 26.7407 352.994 26.7407C352.266 26.7407 351.676 27.3307 351.676 28.0585C351.676 28.7863 352.266 29.3763 352.994 29.3763Z" fill="#262626"/>
<path d="M342.126 30.6722C342.854 30.6722 343.444 30.0822 343.444 29.3544C343.444 28.6266 342.854 28.0366 342.126 28.0366C341.399 28.0366 340.809 28.6266 340.809 29.3544C340.809 30.0822 341.399 30.6722 342.126 30.6722Z" fill="#262626"/>
<path d="M366.159 28.2145C365.98 27.9825 365.604 27.8822 365.347 28.0564C364.242 28.8058 363.435 29.9674 363.185 31.2875C363.13 31.581 363.319 31.8744 363.622 31.9245C363.898 31.9702 364.271 31.8369 364.33 31.524C364.383 31.2456 364.462 30.9762 364.563 30.7118C364.565 30.7052 364.566 30.7028 364.568 30.6978C364.568 30.6978 364.568 30.6975 364.568 30.697C364.584 30.6632 364.598 30.6292 364.614 30.5954C364.645 30.5281 364.678 30.4613 364.712 30.3956C364.778 30.2708 364.849 30.1489 364.926 30.0304C364.963 29.9742 365 29.9191 365.039 29.8647C365.061 29.8344 365.083 29.8046 365.105 29.7747C365.109 29.7692 365.117 29.7592 365.125 29.7489C365.213 29.6454 365.299 29.5431 365.394 29.4462C365.492 29.3452 365.595 29.2486 365.703 29.1573C365.731 29.1333 365.76 29.1095 365.788 29.0863C365.796 29.0797 365.815 29.0654 365.828 29.0554C365.878 29.0195 365.927 28.9839 365.977 28.9499C366.213 28.7908 366.354 28.467 366.159 28.2145Z" fill="#262626"/>
<path d="M355.574 34.563L348.109 39.2721C348.109 39.2721 349.423 42.5829 352.474 41.6266C357.859 39.94 355.574 34.563 355.574 34.563Z" fill="white"/>
<path d="M383.557 217.258C383.506 217.258 383.455 217.244 383.411 217.214C383.051 216.975 374.579 211.266 373.499 204.063C372.584 197.961 370.055 164.01 369.85 161.241L364.843 159.609C364.704 159.564 364.628 159.415 364.673 159.276C364.719 159.138 364.867 159.061 365.006 159.107L370.35 160.849L370.363 161.025C370.39 161.391 373.075 197.673 374.021 203.984C375.066 210.955 383.616 216.717 383.702 216.775C383.824 216.856 383.857 217.019 383.776 217.141C383.726 217.217 383.642 217.258 383.557 217.258Z" fill="white"/>
<path d="M316.65 264.824H89.0438C78.5263 264.824 70 256.298 70 245.78V94H335.694V245.78C335.694 256.298 327.168 264.824 316.65 264.824Z" fill="white"/>
<path d="M348.258 124.193C347.858 122.415 347.45 120.549 347.039 118.608C351.763 115.704 368.466 105.44 368.646 105.378C368.859 105.307 382.809 95.1523 382.809 95.1523C384.894 113.033 355.721 122.161 348.258 124.193Z" fill="#9BCFB9"/>
<path d="M335.055 92.1245V115.359H69.3613V92.1245C69.3613 85.5804 73.7836 80.2739 79.2374 80.2739H325.18C330.633 80.2739 335.055 85.5804 335.055 92.1245Z" fill="url(#paint1_linear_2708_919)"/>
<path d="M335.055 92.6343V115.359H69.3613V109.937C106.085 111.113 268.634 114.918 335.055 92.6343Z" fill="#9BCFB9"/>
<path d="M327.751 117.177C327.35 117.169 316.917 117.019 316.918 118.152C316.919 120.139 327.008 120.077 327.25 120.077C327.027 120.118 318.13 121.526 318.078 122.686C317.994 124.535 327.621 123.232 327.936 123.187C327.668 123.258 321.307 124.93 321.372 126.508C321.425 127.773 340.518 125.125 343.34 122.463C343.34 122.463 359.03 116.341 370.464 111.949C371.808 111.433 373.015 110.83 374.098 110.152C380.95 105.881 382.83 98.7372 382.975 92.5821C383.125 86.2364 382.555 80.2739 382.555 80.2739L362.016 86.3066L365.252 97.0914L342.063 112.924C342.063 112.924 333.897 104.335 331.742 105.193C330.524 105.68 334.265 109.888 334.522 111.922C334.721 113.489 330.835 113.645 330.835 113.645C330.835 113.645 317.84 112.38 317.576 113.671C317.148 115.765 327.31 117.098 327.751 117.177Z" fill="#FFAAA5"/>
<path d="M365.253 97.0916L368.182 94.8384L364.879 95.8461L365.253 97.0916Z" fill="#262626"/>
<path d="M304.511 80.2733C304.511 80.2733 300.93 76.3392 298.295 76.2864C298.295 76.2864 293.498 74.3359 289.544 75.1267C285.59 75.9175 282.626 80.3899 282.626 80.3899C282.626 80.3899 281.584 83.1392 286.012 83.2448C290.44 83.3503 298.009 80.3023 298.009 80.3023L304.511 80.2733Z" fill="#FFAAA5"/>
<path d="M92.6864 102.999C95.5486 102.999 97.8689 100.679 97.8689 97.8163C97.8689 94.9541 95.5486 92.6338 92.6864 92.6338C89.8242 92.6338 87.5039 94.9541 87.5039 97.8163C87.5039 100.679 89.8242 102.999 92.6864 102.999Z" fill="white"/>
<path d="M113.177 102.999C116.039 102.999 118.359 100.679 118.359 97.8163C118.359 94.9541 116.039 92.6338 113.177 92.6338C110.314 92.6338 107.994 94.9541 107.994 97.8163C107.994 100.679 110.314 102.999 113.177 102.999Z" fill="white"/>
<path d="M133.673 102.999C136.535 102.999 138.855 100.679 138.855 97.8163C138.855 94.9541 136.535 92.6338 133.673 92.6338C130.811 92.6338 128.49 94.9541 128.49 97.8163C128.49 100.679 130.811 102.999 133.673 102.999Z" fill="white"/>
<path d="M217.42 245.124H186.997C183.737 245.124 181.094 242.481 181.094 239.221V238.048C181.094 234.788 183.737 232.145 186.997 232.145H217.42C220.68 232.145 223.323 234.788 223.323 238.048V239.221C223.323 242.481 220.68 245.124 217.42 245.124Z" fill="#262626"/>
<path d="M216.762 237.436H187.654V239.834H216.762V237.436Z" fill="white"/>
<path d="M53.8786 238.688H67.2755L54.4064 251.56H53.8786C52.9023 251.56 52.1133 250.771 52.1133 249.795V240.454C52.1133 239.477 52.9023 238.688 53.8786 238.688Z" fill="url(#paint2_linear_2708_919)"/>
<path d="M81.4636 238.688H94.4568L81.5876 251.56H68.5918L81.4636 238.688Z" fill="url(#paint3_linear_2708_919)"/>
<path d="M108.645 238.688H121.638L108.769 251.56H95.7734L108.645 238.688Z" fill="url(#paint4_linear_2708_919)"/>
<path d="M138.769 240.454V249.795C138.769 250.771 137.98 251.56 137.004 251.56H122.955L135.827 238.688H137.004C137.98 238.688 138.769 239.477 138.769 240.454Z" fill="url(#paint5_linear_2708_919)"/>
<path d="M81.464 238.688L68.5922 251.56H54.4062L67.2754 238.688H81.464Z" fill="white"/>
<path d="M108.646 238.688L95.7738 251.56H81.5879L94.4571 238.688H108.646Z" fill="white"/>
<path d="M135.827 238.688L122.955 251.56H108.77L121.639 238.688H135.827Z" fill="white"/>
<path d="M67.2744 238.874C71.0752 238.874 74.1563 235.792 74.1563 231.992C74.1563 228.191 71.0752 225.11 67.2744 225.11C63.4737 225.11 60.3926 228.191 60.3926 231.992C60.3926 235.792 63.4737 238.874 67.2744 238.874Z" fill="#262626"/>
<path d="M70.9993 231.991C70.9993 234.047 69.3316 235.715 67.276 235.715C66.0886 235.715 65.0278 235.158 64.347 234.29C63.8483 233.656 63.5527 232.859 63.5527 231.991C63.5527 229.936 65.2204 228.268 67.276 228.268C68.949 228.268 70.366 229.374 70.8357 230.891C70.9412 231.24 70.9993 231.609 70.9993 231.991Z" fill="url(#paint6_linear_2708_919)"/>
<path d="M70.998 231.991C70.998 234.047 69.3303 235.714 67.2747 235.714C66.0873 235.714 65.0265 235.157 64.3457 234.289C66.2456 234.347 69.4042 233.909 70.8344 230.891C70.9399 231.239 70.998 231.609 70.998 231.991Z" fill="#9BCFB9"/>
<path d="M66.4991 230.784C67.0315 230.784 67.463 230.353 67.463 229.82C67.463 229.288 67.0315 228.856 66.4991 228.856C65.9667 228.856 65.5352 229.288 65.5352 229.82C65.5352 230.353 65.9667 230.784 66.4991 230.784Z" fill="#FF906E"/>
<path d="M122.956 238.874C126.757 238.874 129.838 235.792 129.838 231.992C129.838 228.191 126.757 225.11 122.956 225.11C119.155 225.11 116.074 228.191 116.074 231.992C116.074 235.792 119.155 238.874 122.956 238.874Z" fill="#262626"/>
<path d="M126.681 231.991C126.681 234.047 125.013 235.715 122.958 235.715C121.77 235.715 120.709 235.158 120.029 234.29C119.53 233.656 119.234 232.859 119.234 231.991C119.234 229.936 120.902 228.268 122.958 228.268C124.631 228.268 126.048 229.374 126.517 230.891C126.623 231.24 126.681 231.609 126.681 231.991Z" fill="url(#paint7_linear_2708_919)"/>
<path d="M126.68 231.991C126.68 234.047 125.012 235.714 122.956 235.714C121.769 235.714 120.708 235.157 120.027 234.289C121.927 234.347 125.086 233.909 126.516 230.891C126.622 231.239 126.68 231.609 126.68 231.991Z" fill="#9BCFB9"/>
<path d="M122.179 230.784C122.711 230.784 123.143 230.353 123.143 229.82C123.143 229.288 122.711 228.856 122.179 228.856C121.646 228.856 121.215 229.288 121.215 229.82C121.215 230.353 121.646 230.784 122.179 230.784Z" fill="#FF906E"/>
<path d="M70.1966 251.561H64.3555V300.113H70.1966V251.561Z" fill="#262626"/>
<path d="M126.247 251.561H120.406V300.113H126.247V251.561Z" fill="#262626"/>
<path d="M53.8786 258.063H67.2755L54.4064 270.935H53.8786C52.9023 270.935 52.1133 270.146 52.1133 269.17V259.829C52.1133 258.852 52.9023 258.063 53.8786 258.063Z" fill="url(#paint8_linear_2708_919)"/>
<path d="M81.4636 258.063H94.4568L81.5876 270.935H68.5918L81.4636 258.063Z" fill="url(#paint9_linear_2708_919)"/>
<path d="M108.645 258.063H121.638L108.769 270.935H95.7734L108.645 258.063Z" fill="url(#paint10_linear_2708_919)"/>
<path d="M138.769 259.829V269.17C138.769 270.146 137.98 270.935 137.004 270.935H122.955L135.827 258.063H137.004C137.98 258.063 138.769 258.852 138.769 259.829Z" fill="url(#paint11_linear_2708_919)"/>
<path d="M81.464 258.063L68.5922 270.935H54.4062L67.2754 258.063H81.464Z" fill="white"/>
<path d="M108.646 258.063L95.7738 270.935H81.5879L94.4571 258.063H108.646Z" fill="white"/>
<path d="M135.827 258.063L122.955 270.935H108.77L121.639 258.063H135.827Z" fill="white"/>
<path d="M95.0115 128.079V142.703C95.0115 145.582 92.6763 147.917 89.7974 147.917H23.6419C21.3198 147.917 19.3539 146.4 18.6811 144.302C18.5148 143.798 18.4277 143.26 18.4277 142.703V128.079C18.4277 125.201 20.7604 122.865 23.6419 122.865H89.7971C91.1086 122.865 92.3066 123.348 93.2222 124.153C94.3176 125.106 95.0115 126.512 95.0115 128.079Z" fill="#4FB27F"/>
<path d="M95.0121 128.079V142.703C95.0121 145.582 92.6768 147.917 89.798 147.917H23.6425C21.3204 147.917 19.3545 146.4 18.6816 144.302C32.8385 145.157 47.0482 145.719 61.11 144.03C77.2328 142.096 77.1475 137.009 89.9006 126.958C91.0379 126.061 92.1462 125.124 93.2228 124.153C94.3181 125.105 95.0121 126.512 95.0121 128.079Z" fill="#008F45"/>
<path d="M35.0352 130.615H40.933V132.449H37.133V134.322H40.4053V136.064H37.133V138.334H41.0781V140.168H35.0352V130.615Z" fill="white"/>
<path d="M42.4375 130.615H45.4327C46.5674 130.615 47.6364 130.773 48.4013 131.248C49.1006 131.683 49.5494 132.396 49.5494 133.491C49.5494 134.718 48.8766 135.721 47.6097 136.13L50.3015 140.168H47.887L45.4723 136.394H44.5356V140.168H42.4378L42.4375 130.615ZM45.5911 134.824C46.1584 134.824 46.5938 134.758 46.9104 134.6C47.2667 134.415 47.4514 134.098 47.4514 133.636C47.4514 133.188 47.2931 132.898 46.9104 132.7C46.5806 132.528 46.066 132.449 45.3401 132.449H44.5353V134.824H45.5911Z" fill="white"/>
<path d="M51.0527 130.615H54.048C55.1826 130.615 56.2516 130.773 57.0166 131.248C57.7158 131.683 58.1647 132.396 58.1647 133.491C58.1647 134.718 57.4918 135.721 56.2249 136.13L58.9167 140.168H56.5023L54.0876 136.394H53.1508V140.168H51.053V130.615H51.0527ZM54.206 134.824C54.7734 134.824 55.2088 134.758 55.5254 134.6C55.8816 134.415 56.0664 134.098 56.0664 133.636C56.0664 133.188 55.908 132.898 55.5254 132.7C55.1956 132.528 54.681 132.449 53.9551 132.449H53.1503V134.824H54.206Z" fill="white"/>
<path d="M59.2461 135.391C59.2461 132.607 61.3967 130.47 64.2336 130.47C67.0705 130.47 69.2211 132.607 69.2211 135.391C69.2211 138.175 67.0705 140.313 64.2336 140.313C61.3969 140.313 59.2461 138.175 59.2461 135.391ZM67.1233 135.391C67.1233 133.702 65.8831 132.37 64.2336 132.37C62.5844 132.37 61.3439 133.702 61.3439 135.391C61.3439 137.08 62.5844 138.413 64.2336 138.413C65.8831 138.413 67.1233 137.08 67.1233 135.391Z" fill="white"/>
<path d="M70.541 130.615H73.5363C74.6709 130.615 75.7399 130.773 76.5048 131.248C77.2041 131.683 77.653 132.396 77.653 133.491C77.653 134.718 76.9801 135.721 75.7132 136.13L78.405 140.168H75.9906L73.5758 136.394H72.6391V140.168H70.5413V130.615H70.541ZM73.6943 134.824C74.2617 134.824 74.697 134.758 75.0137 134.6C75.3699 134.415 75.5546 134.098 75.5546 133.636C75.5546 133.188 75.3963 132.898 75.0137 132.7C74.6839 132.528 74.1693 132.449 73.4434 132.449H72.6386V134.824H73.6943Z" fill="white"/>
<path d="M333.132 279.714H298.36C294.794 279.714 291.914 277.631 290.557 274.788C289.486 272.549 289.356 269.839 290.579 267.311L304.725 238.043C306.768 233.817 311.049 231.13 315.746 231.13C318.092 231.13 320.339 231.801 322.252 233.002C324.165 234.203 325.748 235.93 326.771 238.043L334.785 254.629L340.913 267.311C343.69 273.049 339.508 279.714 333.132 279.714Z" fill="url(#paint12_linear_2708_919)"/>
<path d="M333.132 279.714H298.36C294.794 279.714 291.913 277.631 290.557 274.788C296.543 276.196 302.627 277.082 308.736 276.608C317.744 275.904 326.934 271.748 331.568 263.993C333.273 261.135 334.289 257.932 334.785 254.629L340.913 267.311C343.69 273.049 339.508 279.714 333.132 279.714Z" fill="#9BCFB9"/>
<path d="M311.631 239.586H319.864L318.133 262.18H313.362L311.631 239.586ZM315.747 265.829C317.993 265.829 319.864 267.653 319.864 269.898C319.864 272.144 317.993 273.968 315.747 273.968C313.502 273.968 311.631 272.144 311.631 269.898C311.631 267.653 313.502 265.829 315.747 265.829Z" fill="white"/>
<path d="M238.448 284.307C238.204 284.343 237.959 284.381 237.71 284.421L229.559 260.787C236.315 266.498 239.924 275.586 238.448 284.307Z" fill="#4FB27F"/>
<path d="M246.654 285.235C245.113 285.505 243.613 285.738 242.104 285.824L244.425 247.101C249.391 259.087 250.189 272.753 246.654 285.235Z" fill="#4FB27F"/>
<path d="M244.424 247.101L242.103 285.824C240.939 285.891 239.771 285.871 238.576 285.715C235.221 272.764 237.384 258.478 244.424 247.101Z" fill="url(#paint13_linear_2708_919)"/>
<path d="M237.71 284.421C236.676 284.587 235.607 284.779 234.594 284.929C229.908 277.926 228.063 269.079 229.559 260.787L237.71 284.421Z" fill="url(#paint14_linear_2708_919)"/>
<path d="M247.021 284.307C247.264 284.343 247.51 284.381 247.759 284.421L255.91 260.787C249.154 266.498 245.544 275.586 247.021 284.307Z" fill="#4FB27F"/>
<path d="M247.76 284.421C248.794 284.587 249.862 284.779 250.875 284.929C255.562 277.926 257.406 269.079 255.911 260.787L247.76 284.421Z" fill="url(#paint15_linear_2708_919)"/>
<path d="M252.378 300.125H233.513L232.193 284.887H253.698L252.378 300.125Z" fill="#262626"/>
<path d="M254.599 283.616H231.293V286.769H254.599V283.616Z" fill="#262626"/>
<path d="M232.357 286.78L232.568 289.207L253.103 291.76L253.548 286.623L232.357 286.78Z" fill="#9BCFB9"/>
<path d="M235.632 293.455C236.156 293.455 236.582 293.03 236.582 292.505C236.582 291.98 236.156 291.555 235.632 291.555C235.107 291.555 234.682 291.98 234.682 292.505C234.682 293.03 235.107 293.455 235.632 293.455Z" fill="#9BCFB9"/>
<path d="M234.463 295.905C234.655 295.905 234.811 295.749 234.811 295.557C234.811 295.365 234.655 295.209 234.463 295.209C234.271 295.209 234.115 295.365 234.115 295.557C234.115 295.749 234.271 295.905 234.463 295.905Z" fill="#9BCFB9"/>
<path d="M118.726 167.436V175.212C118.726 176.064 118.948 176.718 119.392 177.174C119.836 177.618 120.46 177.84 121.264 177.84C122.08 177.84 122.71 177.618 123.154 177.174C123.598 176.718 123.82 176.064 123.82 175.212V167.436H126.358V175.194C126.358 176.262 126.124 177.168 125.656 177.912C125.2 178.644 124.582 179.196 123.802 179.568C123.034 179.94 122.176 180.126 121.228 180.126C120.292 180.126 119.44 179.94 118.672 179.568C117.916 179.196 117.316 178.644 116.872 177.912C116.428 177.168 116.206 176.262 116.206 175.194V167.436H118.726ZM139.539 180H137.019L131.313 171.378V180H128.793V167.418H131.313L137.019 176.058V167.418H139.539V180ZM144.549 169.47V172.62H148.779V174.618H144.549V177.948H149.319V180H142.029V167.418H149.319V169.47H144.549ZM159.133 180L156.415 175.77L153.949 180H151.105L155.065 173.664L151.051 167.436H153.949L156.667 171.648L159.115 167.436H161.959L158.017 173.754L162.031 180H159.133ZM173.111 171.324C173.111 171.996 172.949 172.626 172.625 173.214C172.313 173.802 171.815 174.276 171.131 174.636C170.459 174.996 169.607 175.176 168.575 175.176H166.469V180H163.949V167.436H168.575C169.547 167.436 170.375 167.604 171.059 167.94C171.743 168.276 172.253 168.738 172.589 169.326C172.937 169.914 173.111 170.58 173.111 171.324ZM168.467 173.142C169.163 173.142 169.679 172.986 170.015 172.674C170.351 172.35 170.519 171.9 170.519 171.324C170.519 170.1 169.835 169.488 168.467 169.488H166.469V173.142H168.467ZM177.42 169.47V172.62H181.65V174.618H177.42V177.948H182.19V180H174.9V167.418H182.19V169.47H177.42ZM183.868 173.7C183.868 172.464 184.144 171.36 184.696 170.388C185.26 169.404 186.022 168.642 186.982 168.102C187.954 167.55 189.04 167.274 190.24 167.274C191.644 167.274 192.874 167.634 193.93 168.354C194.986 169.074 195.724 170.07 196.144 171.342H193.246C192.958 170.742 192.55 170.292 192.022 169.992C191.506 169.692 190.906 169.542 190.222 169.542C189.49 169.542 188.836 169.716 188.26 170.064C187.696 170.4 187.252 170.88 186.928 171.504C186.616 172.128 186.46 172.86 186.46 173.7C186.46 174.528 186.616 175.26 186.928 175.896C187.252 176.52 187.696 177.006 188.26 177.354C188.836 177.69 189.49 177.858 190.222 177.858C190.906 177.858 191.506 177.708 192.022 177.408C192.55 177.096 192.958 176.64 193.246 176.04H196.144C195.724 177.324 194.986 178.326 193.93 179.046C192.886 179.754 191.656 180.108 190.24 180.108C189.04 180.108 187.954 179.838 186.982 179.298C186.022 178.746 185.26 177.984 184.696 177.012C184.144 176.04 183.868 174.936 183.868 173.7ZM206.847 167.436V169.47H203.499V180H200.979V169.47H197.631V167.436H206.847ZM211.205 169.47V172.62H215.435V174.618H211.205V177.948H215.975V180H208.685V167.418H215.975V169.47H211.205ZM222.657 167.436C223.977 167.436 225.135 167.694 226.131 168.21C227.139 168.726 227.913 169.464 228.453 170.424C229.005 171.372 229.281 172.476 229.281 173.736C229.281 174.996 229.005 176.1 228.453 177.048C227.913 177.984 227.139 178.71 226.131 179.226C225.135 179.742 223.977 180 222.657 180H218.265V167.436H222.657ZM222.567 177.858C223.887 177.858 224.907 177.498 225.627 176.778C226.347 176.058 226.707 175.044 226.707 173.736C226.707 172.428 226.347 171.408 225.627 170.676C224.907 169.932 223.887 169.56 222.567 169.56H220.785V177.858H222.567ZM237.977 169.47V172.62H242.207V174.618H237.977V177.948H242.747V180H235.457V167.418H242.747V169.47H237.977ZM251.517 180L248.745 175.104H247.557V180H245.037V167.436H249.753C250.725 167.436 251.553 167.61 252.237 167.958C252.921 168.294 253.431 168.756 253.767 169.344C254.115 169.92 254.289 170.568 254.289 171.288C254.289 172.116 254.049 172.866 253.569 173.538C253.089 174.198 252.375 174.654 251.427 174.906L254.433 180H251.517ZM247.557 173.214H249.663C250.347 173.214 250.857 173.052 251.193 172.728C251.529 172.392 251.697 171.93 251.697 171.342C251.697 170.766 251.529 170.322 251.193 170.01C250.857 169.686 250.347 169.524 249.663 169.524H247.557V173.214ZM263.048 180L260.276 175.104H259.088V180H256.568V167.436H261.284C262.256 167.436 263.084 167.61 263.768 167.958C264.452 168.294 264.962 168.756 265.298 169.344C265.646 169.92 265.82 170.568 265.82 171.288C265.82 172.116 265.58 172.866 265.1 173.538C264.62 174.198 263.906 174.654 262.958 174.906L265.964 180H263.048ZM259.088 173.214H261.194C261.878 173.214 262.388 173.052 262.724 172.728C263.06 172.392 263.228 171.93 263.228 171.342C263.228 170.766 263.06 170.322 262.724 170.01C262.388 169.686 261.878 169.524 261.194 169.524H259.088V173.214ZM273.931 180.126C272.755 180.126 271.675 179.85 270.691 179.298C269.707 178.746 268.927 177.984 268.351 177.012C267.775 176.028 267.487 174.918 267.487 173.682C267.487 172.458 267.775 171.36 268.351 170.388C268.927 169.404 269.707 168.636 270.691 168.084C271.675 167.532 272.755 167.256 273.931 167.256C275.119 167.256 276.199 167.532 277.171 168.084C278.155 168.636 278.929 169.404 279.493 170.388C280.069 171.36 280.357 172.458 280.357 173.682C280.357 174.918 280.069 176.028 279.493 177.012C278.929 177.984 278.155 178.746 277.171 179.298C276.187 179.85 275.107 180.126 273.931 180.126ZM273.931 177.876C274.687 177.876 275.353 177.708 275.929 177.372C276.505 177.024 276.955 176.532 277.279 175.896C277.603 175.26 277.765 174.522 277.765 173.682C277.765 172.842 277.603 172.11 277.279 171.486C276.955 170.85 276.505 170.364 275.929 170.028C275.353 169.692 274.687 169.524 273.931 169.524C273.175 169.524 272.503 169.692 271.915 170.028C271.339 170.364 270.889 170.85 270.565 171.486C270.241 172.11 270.079 172.842 270.079 173.682C270.079 174.522 270.241 175.26 270.565 175.896C270.889 176.532 271.339 177.024 271.915 177.372C272.503 177.708 273.175 177.876 273.931 177.876ZM288.712 180L285.94 175.104H284.752V180H282.232V167.436H286.948C287.92 167.436 288.748 167.61 289.432 167.958C290.116 168.294 290.626 168.756 290.962 169.344C291.31 169.92 291.484 170.568 291.484 171.288C291.484 172.116 291.244 172.866 290.764 173.538C290.284 174.198 289.57 174.654 288.622 174.906L291.628 180H288.712ZM284.752 173.214H286.858C287.542 173.214 288.052 173.052 288.388 172.728C288.724 172.392 288.892 171.93 288.892 171.342C288.892 170.766 288.724 170.322 288.388 170.01C288.052 169.686 287.542 169.524 286.858 169.524H284.752V173.214Z" fill="black"/>
<path d="M170.126 196.03V196.77H168.226V203H167.316V196.77H165.406V196.03H170.126ZM172.157 198.41C172.317 198.097 172.543 197.853 172.837 197.68C173.137 197.507 173.5 197.42 173.927 197.42V198.36H173.687C172.667 198.36 172.157 198.913 172.157 200.02V203H171.247V197.52H172.157V198.41ZM179.697 197.52L176.397 205.58H175.457L176.537 202.94L174.327 197.52H175.337L177.057 201.96L178.757 197.52H179.697ZM187.398 201.45H184.358L183.798 203H182.838L185.358 196.07H186.408L188.918 203H187.958L187.398 201.45ZM187.138 200.71L185.878 197.19L184.618 200.71H187.138ZM192.276 197.43C192.749 197.43 193.163 197.533 193.516 197.74C193.876 197.947 194.143 198.207 194.316 198.52V197.52H195.236V203.12C195.236 203.62 195.129 204.063 194.916 204.45C194.703 204.843 194.396 205.15 193.996 205.37C193.603 205.59 193.143 205.7 192.616 205.7C191.896 205.7 191.296 205.53 190.816 205.19C190.336 204.85 190.053 204.387 189.966 203.8H190.866C190.966 204.133 191.173 204.4 191.486 204.6C191.799 204.807 192.176 204.91 192.616 204.91C193.116 204.91 193.523 204.753 193.836 204.44C194.156 204.127 194.316 203.687 194.316 203.12V201.97C194.136 202.29 193.869 202.557 193.516 202.77C193.163 202.983 192.749 203.09 192.276 203.09C191.789 203.09 191.346 202.97 190.946 202.73C190.553 202.49 190.243 202.153 190.016 201.72C189.789 201.287 189.676 200.793 189.676 200.24C189.676 199.68 189.789 199.19 190.016 198.77C190.243 198.343 190.553 198.013 190.946 197.78C191.346 197.547 191.789 197.43 192.276 197.43ZM194.316 200.25C194.316 199.837 194.233 199.477 194.066 199.17C193.899 198.863 193.673 198.63 193.386 198.47C193.106 198.303 192.796 198.22 192.456 198.22C192.116 198.22 191.806 198.3 191.526 198.46C191.246 198.62 191.023 198.853 190.856 199.16C190.689 199.467 190.606 199.827 190.606 200.24C190.606 200.66 190.689 201.027 190.856 201.34C191.023 201.647 191.246 201.883 191.526 202.05C191.806 202.21 192.116 202.29 192.456 202.29C192.796 202.29 193.106 202.21 193.386 202.05C193.673 201.883 193.899 201.647 194.066 201.34C194.233 201.027 194.316 200.663 194.316 200.25ZM196.434 200.24C196.434 199.68 196.547 199.19 196.774 198.77C197.001 198.343 197.311 198.013 197.704 197.78C198.104 197.547 198.547 197.43 199.034 197.43C199.514 197.43 199.931 197.533 200.284 197.74C200.637 197.947 200.901 198.207 201.074 198.52V197.52H201.994V203H201.074V201.98C200.894 202.3 200.624 202.567 200.264 202.78C199.911 202.987 199.497 203.09 199.024 203.09C198.537 203.09 198.097 202.97 197.704 202.73C197.311 202.49 197.001 202.153 196.774 201.72C196.547 201.287 196.434 200.793 196.434 200.24ZM201.074 200.25C201.074 199.837 200.991 199.477 200.824 199.17C200.657 198.863 200.431 198.63 200.144 198.47C199.864 198.303 199.554 198.22 199.214 198.22C198.874 198.22 198.564 198.3 198.284 198.46C198.004 198.62 197.781 198.853 197.614 199.16C197.447 199.467 197.364 199.827 197.364 200.24C197.364 200.66 197.447 201.027 197.614 201.34C197.781 201.647 198.004 201.883 198.284 202.05C198.564 202.21 198.874 202.29 199.214 202.29C199.554 202.29 199.864 202.21 200.144 202.05C200.431 201.883 200.657 201.647 200.824 201.34C200.991 201.027 201.074 200.663 201.074 200.25ZM204.002 196.63C203.828 196.63 203.682 196.57 203.562 196.45C203.442 196.33 203.382 196.183 203.382 196.01C203.382 195.837 203.442 195.69 203.562 195.57C203.682 195.45 203.828 195.39 204.002 195.39C204.168 195.39 204.308 195.45 204.422 195.57C204.542 195.69 204.602 195.837 204.602 196.01C204.602 196.183 204.542 196.33 204.422 196.45C204.308 196.57 204.168 196.63 204.002 196.63ZM204.442 197.52V203H203.532V197.52H204.442ZM208.663 197.42C209.329 197.42 209.869 197.623 210.283 198.03C210.696 198.43 210.903 199.01 210.903 199.77V203H210.003V199.9C210.003 199.353 209.866 198.937 209.593 198.65C209.319 198.357 208.946 198.21 208.473 198.21C207.993 198.21 207.609 198.36 207.323 198.66C207.043 198.96 206.903 199.397 206.903 199.97V203H205.993V197.52H206.903V198.3C207.083 198.02 207.326 197.803 207.633 197.65C207.946 197.497 208.289 197.42 208.663 197.42ZM215.965 202.26H218.405V203H215.055V196.03H215.965V202.26ZM219.032 200.24C219.032 199.68 219.145 199.19 219.372 198.77C219.598 198.343 219.908 198.013 220.302 197.78C220.702 197.547 221.145 197.43 221.632 197.43C222.112 197.43 222.528 197.533 222.882 197.74C223.235 197.947 223.498 198.207 223.672 198.52V197.52H224.592V203H223.672V201.98C223.492 202.3 223.222 202.567 222.862 202.78C222.508 202.987 222.095 203.09 221.622 203.09C221.135 203.09 220.695 202.97 220.302 202.73C219.908 202.49 219.598 202.153 219.372 201.72C219.145 201.287 219.032 200.793 219.032 200.24ZM223.672 200.25C223.672 199.837 223.588 199.477 223.422 199.17C223.255 198.863 223.028 198.63 222.742 198.47C222.462 198.303 222.152 198.22 221.812 198.22C221.472 198.22 221.162 198.3 220.882 198.46C220.602 198.62 220.378 198.853 220.212 199.16C220.045 199.467 219.962 199.827 219.962 200.24C219.962 200.66 220.045 201.027 220.212 201.34C220.378 201.647 220.602 201.883 220.882 202.05C221.162 202.21 221.472 202.29 221.812 202.29C222.152 202.29 222.462 202.21 222.742 202.05C223.028 201.883 223.255 201.647 223.422 201.34C223.588 201.027 223.672 200.663 223.672 200.25ZM227.239 198.27V201.5C227.239 201.767 227.296 201.957 227.409 202.07C227.523 202.177 227.719 202.23 227.999 202.23H228.669V203H227.849C227.343 203 226.963 202.883 226.709 202.65C226.456 202.417 226.329 202.033 226.329 201.5V198.27H225.619V197.52H226.329V196.14H227.239V197.52H228.669V198.27H227.239ZM234.772 200.05C234.772 200.223 234.762 200.407 234.742 200.6H230.362C230.395 201.14 230.579 201.563 230.912 201.87C231.252 202.17 231.662 202.32 232.142 202.32C232.535 202.32 232.862 202.23 233.122 202.05C233.389 201.863 233.575 201.617 233.682 201.31H234.662C234.515 201.837 234.222 202.267 233.782 202.6C233.342 202.927 232.795 203.09 232.142 203.09C231.622 203.09 231.155 202.973 230.742 202.74C230.335 202.507 230.015 202.177 229.782 201.75C229.549 201.317 229.432 200.817 229.432 200.25C229.432 199.683 229.545 199.187 229.772 198.76C229.999 198.333 230.315 198.007 230.722 197.78C231.135 197.547 231.609 197.43 232.142 197.43C232.662 197.43 233.122 197.543 233.522 197.77C233.922 197.997 234.229 198.31 234.442 198.71C234.662 199.103 234.772 199.55 234.772 200.05ZM233.832 199.86C233.832 199.513 233.755 199.217 233.602 198.97C233.449 198.717 233.239 198.527 232.972 198.4C232.712 198.267 232.422 198.2 232.102 198.2C231.642 198.2 231.249 198.347 230.922 198.64C230.602 198.933 230.419 199.34 230.372 199.86H233.832ZM236.883 198.41C237.043 198.097 237.27 197.853 237.563 197.68C237.863 197.507 238.226 197.42 238.653 197.42V198.36H238.413C237.393 198.36 236.883 198.913 236.883 200.02V203H235.973V197.52H236.883V198.41Z" fill="#595959"/>
<defs>
<linearGradient id="paint0_linear_2708_919" x1="349.281" y1="55.4212" x2="420.812" y2="96.2422" gradientUnits="userSpaceOnUse">
<stop stop-color="#0A974D"/>
<stop offset="1" stop-color="#006260"/>
</linearGradient>
<linearGradient id="paint1_linear_2708_919" x1="105.962" y1="82.5908" x2="115.304" y2="143.252" gradientUnits="userSpaceOnUse">
<stop stop-color="#0A974D"/>
<stop offset="1" stop-color="#006260"/>
</linearGradient>
<linearGradient id="paint2_linear_2708_919" x1="54.202" y1="239.539" x2="65.593" y2="251.043" gradientUnits="userSpaceOnUse">
<stop stop-color="#0A974D"/>
<stop offset="1" stop-color="#006260"/>
</linearGradient>
<linearGradient id="paint3_linear_2708_919" x1="72.1548" y1="239.539" x2="82.0463" y2="256.581" gradientUnits="userSpaceOnUse">
<stop stop-color="#0A974D"/>
<stop offset="1" stop-color="#006260"/>
</linearGradient>
<linearGradient id="paint4_linear_2708_919" x1="99.3365" y1="239.539" x2="109.228" y2="256.581" gradientUnits="userSpaceOnUse">
<stop stop-color="#0A974D"/>
<stop offset="1" stop-color="#006260"/>
</linearGradient>
<linearGradient id="paint5_linear_2708_919" x1="125.134" y1="239.539" x2="136.51" y2="251.522" gradientUnits="userSpaceOnUse">
<stop stop-color="#0A974D"/>
<stop offset="1" stop-color="#006260"/>
</linearGradient>
<linearGradient id="paint6_linear_2708_919" x1="64.5785" y1="228.76" x2="71.0915" y2="234.344" gradientUnits="userSpaceOnUse">
<stop stop-color="#0A974D"/>
<stop offset="1" stop-color="#006260"/>
</linearGradient>
<linearGradient id="paint7_linear_2708_919" x1="120.26" y1="228.76" x2="126.773" y2="234.344" gradientUnits="userSpaceOnUse">
<stop stop-color="#0A974D"/>
<stop offset="1" stop-color="#006260"/>
</linearGradient>
<linearGradient id="paint8_linear_2708_919" x1="54.202" y1="258.914" x2="65.593" y2="270.418" gradientUnits="userSpaceOnUse">
<stop stop-color="#0A974D"/>
<stop offset="1" stop-color="#006260"/>
</linearGradient>
<linearGradient id="paint9_linear_2708_919" x1="72.1548" y1="258.914" x2="82.0463" y2="275.956" gradientUnits="userSpaceOnUse">
<stop stop-color="#0A974D"/>
<stop offset="1" stop-color="#006260"/>
</linearGradient>
<linearGradient id="paint10_linear_2708_919" x1="99.3365" y1="258.914" x2="109.228" y2="275.956" gradientUnits="userSpaceOnUse">
<stop stop-color="#0A974D"/>
<stop offset="1" stop-color="#006260"/>
</linearGradient>
<linearGradient id="paint11_linear_2708_919" x1="125.134" y1="258.914" x2="136.51" y2="270.897" gradientUnits="userSpaceOnUse">
<stop stop-color="#0A974D"/>
<stop offset="1" stop-color="#006260"/>
</linearGradient>
<linearGradient id="paint12_linear_2708_919" x1="296.881" y1="234.338" x2="339.726" y2="273.717" gradientUnits="userSpaceOnUse">
<stop stop-color="#0A974D"/>
<stop offset="1" stop-color="#006260"/>
</linearGradient>
<linearGradient id="paint13_linear_2708_919" x1="238.046" y1="249.66" x2="248.978" y2="251.449" gradientUnits="userSpaceOnUse">
<stop stop-color="#0A974D"/>
<stop offset="1" stop-color="#006260"/>
</linearGradient>
<linearGradient id="paint14_linear_2708_919" x1="230.244" y1="262.381" x2="242.25" y2="266.073" gradientUnits="userSpaceOnUse">
<stop stop-color="#0A974D"/>
<stop offset="1" stop-color="#006260"/>
</linearGradient>
<linearGradient id="paint15_linear_2708_919" x1="248.953" y1="262.381" x2="260.959" y2="266.073" gradientUnits="userSpaceOnUse">
<stop stop-color="#0A974D"/>
<stop offset="1" stop-color="#006260"/>
</linearGradient>
</defs>
</svg>
