<svg width="284" height="64" viewBox="0 0 284 64" fill="none" xmlns="http://www.w3.org/2000/svg">
<path d="M6.91065 28.2724C4.75221 26.9939 3.06095 25.2069 1.8368 22.9108C0.612074 20.6154 0 18.0099 0 15.0951C0 12.1803 0.612074 9.57562 1.8368 7.27942C3.06095 4.98398 4.75221 3.19635 6.91065 1.91781C9.06844 0.639267 11.4934 0 14.1849 0C16.6581 0 18.8643 0.4949 20.8045 1.48473C22.7441 2.47454 24.3444 3.9046 25.6055 5.7741L20.1861 11.2595C18.6097 9.0052 16.7548 7.8775 14.6213 7.8775C12.8266 7.8775 11.3843 8.53094 10.2931 9.83657C9.20202 11.1428 8.65642 12.8956 8.65642 15.0951C8.65642 17.2945 9.20202 19.048 10.2931 20.3536C11.3843 21.6599 12.8266 22.3128 14.6213 22.3128C16.7548 22.3128 18.6097 21.1856 20.1861 18.9307L25.6055 24.4161C24.3444 26.2862 22.7441 27.7156 20.8045 28.7054C18.8643 29.6952 16.6581 30.1902 14.1849 30.1902C11.4934 30.1902 9.06844 29.551 6.91065 28.2724Z" fill="#008F45"/>
<path d="M33.497 28.2518C31.3148 26.9597 29.6053 25.1656 28.3686 22.8695C27.1321 20.5741 26.5137 17.9821 26.5137 15.0951C26.5137 12.2081 27.1321 9.61673 28.3686 7.32067C29.6053 5.02524 31.3148 3.2311 33.497 1.93839C35.6793 0.64631 38.14 0 40.8804 0C43.6207 0 46.0816 0.64631 48.2638 1.93839C50.4461 3.2311 52.1556 5.02524 53.3922 7.32067C54.6288 9.61676 55.2471 12.2081 55.2471 15.0951C55.2471 17.9821 54.6288 20.5741 53.3922 22.8695C52.1556 25.1656 50.4461 26.9597 48.2638 28.2518C46.0816 29.5439 43.6202 30.1902 40.8804 30.1902C38.1406 30.1902 35.6793 29.5439 33.497 28.2518ZM43.7719 21.4259C44.6324 20.8351 45.3177 19.9966 45.8269 18.9101C46.3362 17.8242 46.5908 16.5528 46.5908 15.0951C46.5908 13.6374 46.3362 12.3666 45.8269 11.2801C45.3177 10.1942 44.6324 9.35575 43.7719 8.76426C42.9109 8.17328 41.9472 7.87753 40.8804 7.87753C39.8136 7.87753 38.8493 8.17328 37.9889 8.76426C37.1279 9.35577 36.4432 10.1942 35.934 11.2801C35.4247 12.3666 35.1701 13.6381 35.1701 15.0951C35.1701 16.5521 35.4247 17.8242 35.934 18.9101C36.4432 19.9967 37.1279 20.8351 37.9889 21.4259C38.8494 22.0175 39.8132 22.3128 40.8804 22.3128C41.9476 22.3128 42.911 22.0176 43.7719 21.4259Z" fill="#008F45"/>
<path d="M81.1072 29.5304L81.0344 16.3737L75.5059 26.9321H71.7233L66.1948 16.8274V29.5304H58.375V0.659912H65.4311L73.7238 16.0437L81.7982 0.659912H88.8542L88.927 29.5304H81.1072Z" fill="#008F45"/>
<path d="M93.0742 0.659912H101.658V29.5304H93.0742V0.659912Z" fill="#008F45"/>
<path d="M130.899 0.659912V29.5304H123.843L114.168 16.415V29.5304H105.803V0.659912H112.859L122.534 13.7754V0.659912H130.899Z" fill="#008F45"/>
<path d="M151.886 14.3115H159.342V26.5196C157.838 27.7021 156.092 28.6095 154.104 29.2417C152.116 29.8739 150.164 30.1902 148.249 30.1902C145.533 30.1902 143.096 29.551 140.938 28.2724C138.78 26.9939 137.088 25.2069 135.864 22.9108C134.639 20.6154 134.027 18.0099 134.027 15.0951C134.027 12.1803 134.639 9.57562 135.864 7.27942C137.088 4.98398 138.798 3.19635 140.993 1.91781C143.187 0.639267 145.666 0 148.43 0C150.928 0 153.164 0.474225 155.141 1.4229C157.117 2.37145 158.76 3.75309 160.069 5.56781L154.577 11.0532C152.977 8.93633 151.073 7.87753 148.867 7.87753C146.976 7.87753 145.472 8.52383 144.357 9.81592C143.241 11.1086 142.684 12.868 142.684 15.0951C142.684 17.2675 143.235 19.0132 144.339 20.333C145.442 21.6528 146.915 22.3128 148.758 22.3128C149.849 22.3128 150.891 22.0794 151.886 21.6116L151.886 14.3115Z" fill="#008F45"/>
<path d="M178.955 28.567C176.95 28.052 175.303 27.3587 174.016 26.487L176.786 19.6729C178.001 20.4391 179.361 21.0532 180.868 21.5151C182.375 21.9776 183.821 22.2084 185.206 22.2084C186.396 22.2084 187.247 22.0833 187.757 21.8319C188.268 21.5812 188.523 21.205 188.523 20.7029C188.523 20.1223 188.188 19.6864 187.52 19.3955C186.852 19.1053 185.753 18.7882 184.222 18.4448C182.253 17.996 180.613 17.5136 179.301 16.9987C177.989 16.4836 176.846 15.6387 175.875 14.4632C174.902 13.2883 174.417 11.6968 174.417 9.68933C174.417 7.94606 174.866 6.36133 175.765 4.93514C176.664 3.50894 178.007 2.38661 179.793 1.56772C181.579 0.749341 183.748 0.3396 186.299 0.3396C188.049 0.3396 189.768 0.544421 191.457 0.95366C193.146 1.36341 194.634 1.96386 195.922 2.75622L193.334 9.5308C190.831 8.15786 188.462 7.47068 186.226 7.47068C184.015 7.47068 182.909 8.05196 182.909 9.21395C182.909 9.76861 183.237 10.1844 183.894 10.4617C184.55 10.7391 185.631 11.0363 187.138 11.3531C189.081 11.7495 190.722 12.205 192.058 12.7199C193.394 13.2351 194.555 14.0738 195.539 15.2358C196.523 16.3982 197.016 17.9829 197.016 19.9898C197.016 21.733 196.566 23.3114 195.667 24.7241C194.768 26.1374 193.425 27.2596 191.639 28.0916C189.853 28.9236 187.684 29.3396 185.133 29.3396C183.019 29.3396 180.959 29.0821 178.955 28.567Z" fill="#008F45"/>
<path d="M204.821 27.4775C202.694 26.2363 201.028 24.5131 199.823 22.3074C198.618 20.1024 198.016 17.6128 198.016 14.8397C198.016 12.0665 198.618 9.5773 199.823 7.37173C201.028 5.16659 202.694 3.4434 204.821 2.20155C206.947 0.960421 209.345 0.3396 212.016 0.3396C214.686 0.3396 217.084 0.960421 219.211 2.20155C221.337 3.4434 223.003 5.16659 224.208 7.37173C225.413 9.57728 226.016 12.0663 226.016 14.8397C226.016 17.613 225.413 20.1024 224.208 22.3074C223.003 24.5131 221.337 26.2363 219.211 27.4775C217.084 28.7186 214.685 29.3396 212.016 29.3396C209.346 29.3396 206.947 28.7186 204.821 27.4775ZM214.833 20.9209C215.672 20.3531 216.34 19.5478 216.836 18.5042C217.332 17.4612 217.58 16.2398 217.58 14.8396C217.58 13.4395 217.332 12.2185 216.836 11.1749C216.34 10.1319 215.672 9.32658 214.833 8.75819C213.994 8.19062 213.055 7.90653 212.016 7.90653C210.976 7.90653 210.036 8.19062 209.198 8.75819C208.359 9.32658 207.692 10.1319 207.195 11.1749C206.699 12.2185 206.451 13.4399 206.451 14.8396C206.451 16.2394 206.699 17.4612 207.195 18.5042C207.692 19.5478 208.359 20.3531 209.198 20.9209C210.036 21.4891 210.976 21.7726 212.016 21.7726C213.056 21.7726 213.994 21.4891 214.833 20.9209Z" fill="#008F45"/>
<path d="M234.821 27.4775C232.694 26.2363 231.028 24.5131 229.823 22.3074C228.618 20.1024 228.016 17.6128 228.016 14.8397C228.016 12.0665 228.618 9.5773 229.823 7.37173C231.028 5.16659 232.694 3.4434 234.821 2.20155C236.947 0.960421 239.345 0.3396 242.016 0.3396C244.686 0.3396 247.084 0.960421 249.211 2.20155C251.337 3.4434 253.003 5.16659 254.208 7.37173C255.413 9.57728 256.016 12.0663 256.016 14.8397C256.016 17.613 255.413 20.1024 254.208 22.3074C253.003 24.5131 251.337 26.2363 249.211 27.4775C247.084 28.7186 244.685 29.3396 242.016 29.3396C239.346 29.3396 236.947 28.7186 234.821 27.4775ZM244.833 20.9209C245.672 20.3531 246.34 19.5478 246.836 18.5042C247.332 17.4612 247.58 16.2398 247.58 14.8396C247.58 13.4395 247.332 12.2185 246.836 11.1749C246.34 10.1319 245.672 9.32658 244.833 8.75819C243.994 8.19062 243.055 7.90653 242.016 7.90653C240.976 7.90653 240.036 8.19062 239.198 8.75819C238.359 9.32658 237.692 10.1319 237.195 11.1749C236.699 12.2185 236.451 13.4399 236.451 14.8396C236.451 16.2394 236.699 17.4612 237.195 18.5042C237.692 19.5478 238.359 20.3531 239.198 20.9209C240.036 21.4891 240.976 21.7726 242.016 21.7726C243.056 21.7726 243.994 21.4891 244.833 20.9209Z" fill="#008F45"/>
<path d="M283.016 1.3396V29.3396H276.268L267.016 16.6196V29.3396H259.016V1.3396H265.763L275.016 14.0596V1.3396H283.016Z" fill="#008F45"/>
<path d="M55.792 56.2882C55.1107 56.2882 54.4947 56.1715 53.944 55.9382C53.4027 55.7049 52.9734 55.3689 52.656 54.9302C52.3387 54.4915 52.1754 53.9735 52.166 53.3762H54.266C54.294 53.7775 54.434 54.0949 54.686 54.3282C54.9474 54.5615 55.302 54.6782 55.75 54.6782C56.2074 54.6782 56.5667 54.5709 56.828 54.3562C57.0894 54.1322 57.22 53.8429 57.22 53.4882C57.22 53.1989 57.1314 52.9609 56.954 52.7742C56.7767 52.5875 56.5527 52.4429 56.282 52.3402C56.0207 52.2282 55.6567 52.1069 55.19 51.9762C54.5554 51.7895 54.0374 51.6075 53.636 51.4302C53.244 51.2435 52.9034 50.9682 52.614 50.6042C52.334 50.2309 52.194 49.7362 52.194 49.1202C52.194 48.5415 52.3387 48.0375 52.628 47.6082C52.9174 47.1789 53.3234 46.8522 53.846 46.6282C54.3687 46.3949 54.966 46.2782 55.638 46.2782C56.646 46.2782 57.4627 46.5255 58.088 47.0202C58.7227 47.5055 59.0727 48.1869 59.138 49.0642H56.982C56.9634 48.7282 56.8187 48.4529 56.548 48.2382C56.2867 48.0142 55.9367 47.9022 55.498 47.9022C55.1154 47.9022 54.8074 48.0002 54.574 48.1962C54.35 48.3922 54.238 48.6769 54.238 49.0502C54.238 49.3115 54.322 49.5309 54.49 49.7082C54.6674 49.8762 54.882 50.0162 55.134 50.1282C55.3954 50.2309 55.7594 50.3522 56.226 50.4922C56.8607 50.6789 57.3787 50.8655 57.78 51.0522C58.1814 51.2389 58.5267 51.5189 58.816 51.8922C59.1054 52.2655 59.25 52.7555 59.25 53.3622C59.25 53.8849 59.1147 54.3702 58.844 54.8182C58.5734 55.2662 58.1767 55.6255 57.654 55.8962C57.1314 56.1575 56.5107 56.2882 55.792 56.2882ZM78.2393 46.4182V48.0002H75.6353V56.1902H73.6753V48.0002H71.0713V46.4182H78.2393ZM96.3014 54.3282H92.4094L91.7654 56.1902H89.7074L93.2214 46.4042H95.5034L99.0174 56.1902H96.9454L96.3014 54.3282ZM95.7694 52.7602L94.3554 48.6722L92.9414 52.7602H95.7694ZM118.741 46.4182L115.437 52.7882V56.1902H113.477V52.7882L110.159 46.4182H112.371L114.471 50.8842L116.557 46.4182H118.741ZM151.137 46.4182V48.0002H148.533V56.1902H146.573V48.0002H143.969V46.4182H151.137ZM165.139 46.4182V52.4662C165.139 53.1289 165.312 53.6375 165.657 53.9922C166.003 54.3375 166.488 54.5102 167.113 54.5102C167.748 54.5102 168.238 54.3375 168.583 53.9922C168.929 53.6375 169.101 53.1289 169.101 52.4662V46.4182H171.075V52.4522C171.075 53.2829 170.893 53.9875 170.529 54.5662C170.175 55.1355 169.694 55.5649 169.087 55.8542C168.49 56.1435 167.823 56.2882 167.085 56.2882C166.357 56.2882 165.695 56.1435 165.097 55.8542C164.509 55.5649 164.043 55.1355 163.697 54.5662C163.352 53.9875 163.179 53.2829 163.179 52.4522V46.4182H165.139ZM191.967 56.1902H190.007L185.569 49.4842V56.1902H183.609V46.4042H185.569L190.007 53.1242V46.4042H191.967V56.1902ZM206.504 48.0002V50.4502H209.794V52.0042H206.504V54.5942H210.214V56.1902H204.544V46.4042H210.214V48.0002H206.504ZM226.051 46.4182C227.078 46.4182 227.978 46.6189 228.753 47.0202C229.537 47.4215 230.139 47.9955 230.559 48.7422C230.988 49.4795 231.203 50.3382 231.203 51.3182C231.203 52.2982 230.988 53.1569 230.559 53.8942C230.139 54.6222 229.537 55.1869 228.753 55.5882C227.978 55.9895 227.078 56.1902 226.051 56.1902H222.635V46.4182H226.051ZM225.981 54.5242C227.008 54.5242 227.801 54.2442 228.361 53.6842C228.921 53.1242 229.201 52.3355 229.201 51.3182C229.201 50.3009 228.921 49.5075 228.361 48.9382C227.801 48.3595 227.008 48.0702 225.981 48.0702H224.595V54.5242H225.981Z" fill="#262626"/>
</svg>
